<?xml version="1.0" encoding="UTF-8"?>
<svg id="Capa_2" preserveAspectRatio="xMinYMax meet" data-name="Capa 2" xmlns="http://www.w3.org/2000/svg" xmlns:xlink="http://www.w3.org/1999/xlink" viewBox="0 0 612 39.36">
  <defs>
    <style>
      .cls-1, .cls-2, .cls-3, .cls-4, .cls-5, .cls-6, .cls-7 {
        fill: #f4d192;
      }

      .cls-2 {
        clip-path: url(#clippath-1);
      }

      .cls-2, .cls-3, .cls-4, .cls-5, .cls-6, .cls-7 {
        stroke-width: 0px;
      }

      .cls-3 {
        clip-path: url(#clippath-2);
      }

      .cls-4 {
        clip-path: url(#clippath-4);
      }

      .cls-5 {
        clip-path: url(#clippath-3);
      }

      .cls-8 {
        clip-path: url(#clippath-5);
      }

      .cls-7 {
        clip-path: url(#clippath);
      }
    </style>
    <clipPath id="clippath">
      <path class="cls-6" d="m526.28.18h7.82s0,0,0,0h-7.81Z"/>
    </clipPath>
    <clipPath id="clippath-1">
      <path class="cls-7" d="m604.73.19c0-.1,0-.16,0-.19,0,.04,0,.11,0,.19Z"/>
    </clipPath>
    <clipPath id="clippath-2">
      <path class="cls-2" d="m604.73.19c0,.38,0,.19,0,0v7.36h0c0-2.4,0-5.1,0-7.36-2.54,0-5.08,0-7.63,0h0s-8.04,0-8.04,0h-23.46c-2.65,0-5.3,0-7.95,0-2.54,0-5.33,0-7.87,0h-8.04s0,0,0,0h-7.63s.01,0,.01,0h-23.53s-.02-.01-.02-.01h-23.86v.02c-5.19,0-10.38,0-15.57,0-2.65,0-5.31,0-7.96,0h-15.92c-2.54,0-5.08,0-7.63,0h0c-5.19,0-10.39,0-15.58,0,0,2.63,0,5.26,0,7.89h0c0-3.4,0-4.49,0-7.89h-7.96c-2.66,0-5.31,0-7.97.02-5.19,0-10.38-.01-15.57-.02,0,0,0,.02,0,.02-2.66,0-5.31,0-7.97,0,0,2.64,0,5.27-.01,7.91,0,2.63.02,5.26.03,7.88,0-2.63-.02-5.26-.03-7.88h0c0-2.64,0-5.27.01-7.91-2.65,0-5.3,0-7.95,0h-7.97c-2.71,0-5.16,0-7.62,0h0c-2.69,0-5.37,0-8.15,0h-7.72c-5.46,0-10.55,0-15.64,0-2.65,0-5.3,0-7.94,0h0s0,0,0,0h0v.02c-2.65,0-5.3-.02-7.95-.02-2.55,0-5.09,0-7.64-.01v7.94c5.21,0,10.4,0,15.6,0h0c-5.2,0-10.39,0-15.59,0,0,2.63,0,5.26,0,7.89v15.46c2.53,0,5.08.01,7.62.02,0,2.63,0,5.26,0,7.89h15.91c0-5.26,0-10.51,0-15.77h0c0,5.26,0,10.51,0,15.77h7.63c.11-2.63.22-5.27.33-7.9-.1-2.62-.2-5.25-.3-7.87,2.64,0,5.28-.02,7.92-.02h0c-2.64,0-5.28.02-7.92.03.1,2.62.2,5.25.3,7.87,2.55,0,5.09,0,7.64,0,2.65,0,5.29,0,7.94,0,0-2.63,0-5.27,0-7.9,0-2.52,0-5.04,0-7.57h7.96v7.57c2.54.11,5.08.22,7.62.32h0s0,0,0,0h0v7.58h7.98c0,2.62-.01,5.25-.02,7.89h23.54c0-2.52,0-5.05,0-7.57-5.2-.11-10.4-.21-15.6-.32h0c5.2.11,10.4.21,15.6.32.63,0,1.27,0,1.91,0h-1.91c0,2.52,0,5.05,0,7.57h23.87c0-2.63,0-5.27,0-7.9,2.54,0,5.08,0,7.63,0,.22,0,.44,0,.66,0-.11-2.63-.22-5.26-.33-7.89-.11,0-.22,0-.33,0h.33c.11,2.63.22,5.26.33,7.9h7.3v-7.57h7.9v7.57h7.68s0,0,0,0c0,2.63,0,5.27,0,7.9h7.96c0-2.63,0-5.26,0-7.89.63,0,1.26,0,1.9,0h-1.9c0,2.63,0,5.26,0,7.89h23.54c0-3.07,0-6.14,0-9.21-.09-1.02-.18-2.04-.28-3.07.09,1.03.18,2.05.28,3.07.11-1.87.22-3.73.33-5.6,2.54-.11,5.07-.22,7.61-.34,0,2.28,0,4.55,0,7.25,5.47,0,10.7,0,15.93,0,0-2.63,0-5.26,0-7.9h7.63v15.8h23.54c0-2.63,0-5.26,0-7.89-5.19,0-10.38,0-15.57-.01h0c5.19,0,10.38,0,15.57.01,0,0,.04-.05.04-.05,2.63,0,5.27.01,7.9.02h0c.12,0,.24.02.35.03,0,2.63,0,5.26,0,7.89h31.16c0-2.63,0-5.26,0-7.9h0v-7.57c0-.44-.01-.86-.01-1.26,0,.4.01.81.01,1.26,5.3-.11,10.6-.22,15.9-.32,0,0,0,0,0,0,0,2.61,0,5.22,0,7.84,0,2.58,0,5.39,0,7.96h14.9v-15.71c-1.1,0-2.36-.02-3.63-.04l3.63.04V.18h-7.27Zm-291.09,31.27c2.65,0,5.3,0,7.95,0h0c-2.65,0-5.3,0-7.95,0h0Zm31.5-7.91c0-2.52.01-5.03.02-7.55h0c0,2.52-.01,5.03-.02,7.55h0Zm7.94-7.55h0s0,0,0,0h0s0,0,0,0Zm15.58-7.93v.03s0-.03,0-.03h0Zm55.37,7.92h0s0,0,0,0c0,.6,0,1.2,0,1.8v-1.8Zm-7.96,7.89h0c0,.6,0,1.2,0,1.8v-1.8Zm-23.54-15.79c0,2.63,0,5.26,0,7.9,0-2.63,0-5.26,0-7.9h0Zm7.63,7.89h0s0,0,0,0c0-.63,0-1.26,0-1.9v1.9c2.65,0,5.3,0,7.94,0-2.65,0-5.3,0-7.94,0Zm141.89-2.37c0,.38,0,.75,0,1.13,0-.42,0-.86,0-1.31v.18Zm1.11-5.48c.08,0,.16,0,.23,0h-.23Zm2.32-.02c.1,0,.18,0,.23,0h-.23Zm.38,0h0,0Zm0,0s.04,0,.15,0h-.15Zm.38,0c.33,0,.94,0,2.07-.01h-2.07Zm2.34-.02c.31,0,.66,0,1.04,0h-1.04Zm9.04,7.89c0-2.63,0-5.26,0-7.88h0c0,2.63,0,5.25,0,7.88h0c5.19,0,10.39,0,15.58,0h0c-5.19,0-10.39,0-15.58,0,0,0,0,0,0,0Zm6.06-7.98c.23,0,.49,0,.77,0h-.77Zm-14.02.08h0s0,0,0,0h0s0,0,0,0Zm-39.13,0h0c-5.31,0-10.61,0-15.92-.01h0c5.31,0,10.61,0,15.92.01Zm-23.87,7.9c0-2.63,0-5.26,0-7.9,0,2.63,0,5.26,0,7.9h0Zm7.97,7.58h0c2.65,0,5.3,0,7.95-.01h0c2.65,0,5.3,0,7.95,0h0c-2.65,0-5.3,0-7.95,0-2.65,0-5.3,0-7.95.01Zm78.57-8.58v-1,1Zm0-5.86v-1.13s0,.09,0,.09c0,.39,0,.73,0,1.04Zm0,4.07v-1.2c0,.17,0-.33,0,1.2Zm0-2.3v-.9c0,.36,0,.66,0,.9Z"/>
    </clipPath>
    <clipPath id="clippath-3">
      <path class="cls-3" d="m77.9.19h0s7.82,0,7.82,0h-7.81Z"/>
    </clipPath>
    <clipPath id="clippath-4">
      <path class="cls-5" d="m7.27.2c0-.08,0-.15,0-.19,0,.03,0,.09,0,.19Z"/>
    </clipPath>
    <clipPath id="clippath-5">
      <path class="cls-4" d="m306,.16c-2.55,0-5.09,0-7.64.01-2.65,0-5.3.02-7.95.02v-.02h0s0,0,0,0c-2.65,0-5.3,0-7.94,0-5.09,0-10.18,0-15.64,0h-7.72c-2.78,0-5.47,0-8.15,0h0c-2.45,0-4.9,0-7.62,0h-7.97c-2.65,0-5.3,0-7.95,0,0,2.64,0,5.27.01,7.91h0c0,2.63-.02,5.26-.03,7.88,0-2.63.02-5.26.03-7.88,0-2.64,0-5.27-.01-7.91-2.66,0-5.31,0-7.97,0,0,0,0-.02,0-.02-5.19,0-10.38.01-15.57.02-2.66,0-5.31-.01-7.97-.02h-7.96c0,3.4,0,4.49,0,7.89h0s0,0,0,0c0-2.63,0-5.26,0-7.89h-15.58c-2.54,0-5.08,0-7.63,0h-15.92c-2.65,0-5.31,0-7.96,0-5.19,0-10.38,0-15.57,0h0s-23.86-.02-23.86-.02c0,0-.02.02-.02.02h-23.53s.01-.01.01-.01h-7.63s-8.04,0-8.04,0c-2.54,0-5.33,0-7.87,0-2.65,0-5.3,0-7.95,0H14.9c-2.54,0-5.08,0-7.63,0,0,2.27,0,4.96,0,7.36h0V.2c0,.19,0,.38,0,0H0v23.45l3.63-.04c-1.26.02-2.52.04-3.63.04v15.71h22.85v-7.9h7.95c2.55,0,5.09,0,7.96,0v7.9h31.5c0-2.63,0-5.26,0-7.89l-.04-.05c0-2.52,0-5.03,0-7.84h-7.92v-.02c0-2.52-.01-5.04-.01-7.56,2.32,0,5.31,0,7.63,0h7.94v7.58h7.96c0,2.63.01,5.26.02,7.89h0v7.9h15.58c0-2.63,0-5.27,0-7.9,5.23,0,10.46,0,15.93,0,0-2.69,0-4.97,0-7.25,2.54.11,5.07.22,7.61.34.11,1.87.22,3.73.33,5.6.09-1.02.18-2.04.28-3.07-.09,1.03-.18,2.05-.28,3.07,0,3.07,0,6.14,0,9.21h23.54c0-2.63,0-5.26,0-7.89h-1.9c.64,0,1.27,0,1.9,0,2.66,0,5.31,0,7.97,0,0,0,0,0,0,0h0c2.45,0,4.91,0,7.68,0v-7.57h7.9v7.57h7.3c.11-2.63.22-5.26.33-7.89.11,0,.22,0,.33,0-.11,0-.22,0-.33,0-.11,2.63-.22,5.26-.33,7.89.22,0,.44,0,.66,0v7.9h31.5c0-2.52,0-5.05,0-7.57h-1.91c.64,0,1.27,0,1.91,0,5.2-.11,10.4-.21,15.6-.32,2.64,0,5.28,0,7.92-.01h.04c0-2.51-.01-5.04-.02-7.57,2.65,0,5.31,0,7.96,0h0c2.54-.11,5.08-.22,7.62-.33,0,5.27,0,10.53,0,15.8h31.5c0-5.26,0-10.51,0-15.77h0c0,5.26,0,10.51,0,15.77h15.91v-7.89c2.55,0,5.09-.01,7.63-.02v-15.46c0-2.63,0-5.26,0-7.89V.16ZM62.31,8.09s0,0,0,0h0s0,0,0,0h0Zm-7.96,7.89s0,0,0,0c-5.19,0-10.39,0-15.58,0h0c5.19,0,10.39,0,15.58,0h0c0-2.64,0-5.26,0-7.89h0c0,2.63,0,5.25,0,7.88Zm-15.58-7.98v1.13c0-.31,0-.65,0-1.04v-.09Zm0,5.99v1-1Zm9.52-5.99h-.77c.28,0,.54,0,.77,0Zm-9.52,5.19c0-1.53,0-1.03,0-1.2v1.2Zm0-2.3c0-.25,0-.54,0-.9v.9Zm-23.86,12.67h0c0,2.61,0,5.22,0,7.83h0c0-2.61,0-5.22,0-7.84,0,0,0,0,0,0,5.3.11,10.6.22,15.9.32,0-.45,0-.86.01-1.26,0,.4,0,.81-.01,1.26-5.3-.11-10.6-.22-15.9-.32Zm47.42,7.87h0c-.12,0-.24.02-.35.03.12,0,.24-.02.35-.03Zm.02-23.35c.39,0,.73,0,1.04,0h-1.04Zm1.32,0c1.13,0,1.74.01,2.07.01h-2.07Zm2.3.02c.11,0,.14,0,.15,0h-.15Zm.15,0h0,0Zm.15,0c.05,0,.13,0,.23,0h-.23Zm2.32.02c.07,0,.15,0,.23,0h-.23Zm1.34,6.62c0-.38,0-.75,0-1.13v-.18c0,.45,0,.89,0,1.31Zm81.23-6.65h0c-.55,0-1.11,0-1.66,0,.55,0,1.11,0,1.66,0Zm-25.87,0h0s0,0,0,0Zm-7.94-.02h0c-5.31,0-10.61,0-15.92.01h0c5.31,0,10.61,0,15.92-.01Zm-7.97,15.48c-2.65,0-5.3,0-7.95,0h0c2.65,0,5.3,0,7.95,0,2.65,0,5.3,0,7.95.01h0c-2.65,0-5.3,0-7.95-.01Zm188.98,7.91c-2.65,0-5.3,0-7.95,0h0c2.65,0,5.3,0,7.95,0,0-2.52,0-5.05,0-7.57-2.65-.11-5.3-.22-7.95-.33h0c2.65.11,5.3.22,7.95.33,0,2.52,0,5.05,0,7.57h0Zm-31.5-7.91h0c0-2.52-.01-5.03-.02-7.55h0c0,2.52.01,5.03.02,7.55Zm-47.4-15.46c0,2.63,0,5.26,0,7.9,0-2.63,0-5.26,0-7.9h0Zm-31.5,7.9h0v1.81c0-.6,0-1.2,0-1.8,0,0,0,0,0,0Zm7.96,9.7c0-.61,0-1.2,0-1.8h0v1.8Zm7.96-9.71c2.65,0,5.3,0,7.94,0v-1.9c0,.64,0,1.27,0,1.9h0c-2.65,0-5.3,0-7.94,0Zm39.45-7.89v-.03h0s0,.03,0,.03Zm15.59,23.37c0-2.63,0-5.27,0-7.9,0-2.52,0-5.04,0-7.57h0s0,0,0,0c0,2.52,0,5.04,0,7.57,0,2.63,0,5.27,0,7.9h0Zm7.96-7.9h0c2.64,0,5.28.02,7.92.02-.1,2.62-.2,5.25-.3,7.87.1-2.62.2-5.25.3-7.87-2.64,0-5.28-.02-7.92-.03Z"/>
    </clipPath>
  </defs>
  <g id="Capa_1-2" data-name="Capa 1">
    <g>
      <path class="cls-1" d="m526.28.18h7.82s0,0,0,0h-7.81Z"/>
      <path class="cls-1" d="m604.73.19c0-.1,0-.16,0-.19,0,.04,0,.11,0,.19Z"/>
      <path class="cls-1" d="m604.73.19c0,.38,0,.19,0,0v7.36h0c0-2.4,0-5.1,0-7.36-2.54,0-5.08,0-7.63,0h0s-8.04,0-8.04,0h-23.46c-2.65,0-5.3,0-7.95,0-2.54,0-5.33,0-7.87,0h-8.04s0,0,0,0h-7.63s.01,0,.01,0h-23.53s-.02-.01-.02-.01h-23.86v.02c-5.19,0-10.38,0-15.57,0-2.65,0-5.31,0-7.96,0h-15.92c-2.54,0-5.08,0-7.63,0h0c-5.19,0-10.39,0-15.58,0,0,2.63,0,5.26,0,7.89h0c0-3.4,0-4.49,0-7.89h-7.96c-2.66,0-5.31,0-7.97.02-5.19,0-10.38-.01-15.57-.02,0,0,0,.02,0,.02-2.66,0-5.31,0-7.97,0,0,2.64,0,5.27-.01,7.91,0,2.63.02,5.26.03,7.88,0-2.63-.02-5.26-.03-7.88h0c0-2.64,0-5.27.01-7.91-2.65,0-5.3,0-7.95,0h-7.97c-2.71,0-5.16,0-7.62,0h0c-2.69,0-5.37,0-8.15,0h-7.72c-5.46,0-10.55,0-15.64,0-2.65,0-5.3,0-7.94,0h0s0,0,0,0h0v.02c-2.65,0-5.3-.02-7.95-.02-2.55,0-5.09,0-7.64-.01v7.94c5.21,0,10.4,0,15.6,0h0c-5.2,0-10.39,0-15.59,0,0,2.63,0,5.26,0,7.89v15.46c2.53,0,5.08.01,7.62.02,0,2.63,0,5.26,0,7.89h15.91c0-5.26,0-10.51,0-15.77h0c0,5.26,0,10.51,0,15.77h7.63c.11-2.63.22-5.27.33-7.9-.1-2.62-.2-5.25-.3-7.87,2.64,0,5.28-.02,7.92-.02h0c-2.64,0-5.28.02-7.92.03.1,2.62.2,5.25.3,7.87,2.55,0,5.09,0,7.64,0,2.65,0,5.29,0,7.94,0,0-2.63,0-5.27,0-7.9,0-2.52,0-5.04,0-7.57h7.96v7.57c2.54.11,5.08.22,7.62.32h0s0,0,0,0h0v7.58h7.98c0,2.62-.01,5.25-.02,7.89h23.54c0-2.52,0-5.05,0-7.57-5.2-.11-10.4-.21-15.6-.32h0c5.2.11,10.4.21,15.6.32.63,0,1.27,0,1.91,0h-1.91c0,2.52,0,5.05,0,7.57h23.87c0-2.63,0-5.27,0-7.9,2.54,0,5.08,0,7.63,0,.22,0,.44,0,.66,0-.11-2.63-.22-5.26-.33-7.89-.11,0-.22,0-.33,0h.33c.11,2.63.22,5.26.33,7.9h7.3v-7.57h7.9v7.57h7.68s0,0,0,0c0,2.63,0,5.27,0,7.9h7.96c0-2.63,0-5.26,0-7.89.63,0,1.26,0,1.9,0h-1.9c0,2.63,0,5.26,0,7.89h23.54c0-3.07,0-6.14,0-9.21-.09-1.02-.18-2.04-.28-3.07.09,1.03.18,2.05.28,3.07.11-1.87.22-3.73.33-5.6,2.54-.11,5.07-.22,7.61-.34,0,2.28,0,4.55,0,7.25,5.47,0,10.7,0,15.93,0,0-2.63,0-5.26,0-7.9h7.63v15.8h23.54c0-2.63,0-5.26,0-7.89-5.19,0-10.38,0-15.57-.01h0c5.19,0,10.38,0,15.57.01,0,0,.04-.05.04-.05,2.63,0,5.27.01,7.9.02h0c.12,0,.24.02.35.03,0,2.63,0,5.26,0,7.89h31.16c0-2.63,0-5.26,0-7.9h0v-7.57c0-.44-.01-.86-.01-1.26,0,.4.01.81.01,1.26,5.3-.11,10.6-.22,15.9-.32,0,0,0,0,0,0,0,2.61,0,5.22,0,7.84,0,2.58,0,5.39,0,7.96h14.9v-15.71c-1.1,0-2.36-.02-3.63-.04l3.63.04V.18h-7.27Zm-291.09,31.27c2.65,0,5.3,0,7.95,0h0c-2.65,0-5.3,0-7.95,0h0Zm31.5-7.91c0-2.52.01-5.03.02-7.55h0c0,2.52-.01,5.03-.02,7.55h0Zm7.94-7.55h0s0,0,0,0h0s0,0,0,0Zm15.58-7.93v.03s0-.03,0-.03h0Zm55.37,7.92h0s0,0,0,0c0,.6,0,1.2,0,1.8v-1.8Zm-7.96,7.89h0c0,.6,0,1.2,0,1.8v-1.8Zm-23.54-15.79c0,2.63,0,5.26,0,7.9,0-2.63,0-5.26,0-7.9h0Zm7.63,7.89h0s0,0,0,0c0-.63,0-1.26,0-1.9v1.9c2.65,0,5.3,0,7.94,0-2.65,0-5.3,0-7.94,0Zm141.89-2.37c0,.38,0,.75,0,1.13,0-.42,0-.86,0-1.31v.18Zm1.11-5.48c.08,0,.16,0,.23,0h-.23Zm2.32-.02c.1,0,.18,0,.23,0h-.23Zm.38,0h0,0Zm0,0s.04,0,.15,0h-.15Zm.38,0c.33,0,.94,0,2.07-.01h-2.07Zm2.34-.02c.31,0,.66,0,1.04,0h-1.04Zm9.04,7.89c0-2.63,0-5.26,0-7.88h0c0,2.63,0,5.25,0,7.88h0c5.19,0,10.39,0,15.58,0h0c-5.19,0-10.39,0-15.58,0,0,0,0,0,0,0Zm6.06-7.98c.23,0,.49,0,.77,0h-.77Zm-14.02.08h0s0,0,0,0h0s0,0,0,0Zm-39.13,0h0c-5.31,0-10.61,0-15.92-.01h0c5.31,0,10.61,0,15.92.01Zm-23.87,7.9c0-2.63,0-5.26,0-7.9,0,2.63,0,5.26,0,7.9h0Zm7.97,7.58h0c2.65,0,5.3,0,7.95-.01h0c2.65,0,5.3,0,7.95,0h0c-2.65,0-5.3,0-7.95,0-2.65,0-5.3,0-7.95.01Zm78.57-8.58v-1,1Zm0-5.86v-1.13s0,.09,0,.09c0,.39,0,.73,0,1.04Zm0,4.07v-1.2c0,.17,0-.33,0,1.2Zm0-2.3v-.9c0,.36,0,.66,0,.9Z"/>
      <path class="cls-1" d="m77.9.19h0s7.82,0,7.82,0h-7.81Z"/>
      <path class="cls-1" d="m7.27.2c0-.08,0-.15,0-.19,0,.03,0,.09,0,.19Z"/>
      <path class="cls-1" d="m306,.16c-2.55,0-5.09,0-7.64.01-2.65,0-5.3.02-7.95.02v-.02h0s0,0,0,0c-2.65,0-5.3,0-7.94,0-5.09,0-10.18,0-15.64,0h-7.72c-2.78,0-5.47,0-8.15,0h0c-2.45,0-4.9,0-7.62,0h-7.97c-2.65,0-5.3,0-7.95,0,0,2.64,0,5.27.01,7.91h0c0,2.63-.02,5.26-.03,7.88,0-2.63.02-5.26.03-7.88,0-2.64,0-5.27-.01-7.91-2.66,0-5.31,0-7.97,0,0,0,0-.02,0-.02-5.19,0-10.38.01-15.57.02-2.66,0-5.31-.01-7.97-.02h-7.96c0,3.4,0,4.49,0,7.89h0s0,0,0,0c0-2.63,0-5.26,0-7.89h-15.58c-2.54,0-5.08,0-7.63,0h-15.92c-2.65,0-5.31,0-7.96,0-5.19,0-10.38,0-15.57,0h0s-23.86-.02-23.86-.02c0,0-.02.02-.02.02h-23.53s.01-.01.01-.01h-7.63s-8.04,0-8.04,0c-2.54,0-5.33,0-7.87,0-2.65,0-5.3,0-7.95,0H14.9c-2.54,0-5.08,0-7.63,0,0,2.27,0,4.96,0,7.36h0V.2c0,.19,0,.38,0,0H0v23.45l3.63-.04c-1.26.02-2.52.04-3.63.04v15.71h22.85v-7.9h7.95c2.55,0,5.09,0,7.96,0v7.9h31.5c0-2.63,0-5.26,0-7.89l-.04-.05c0-2.52,0-5.03,0-7.84h-7.92v-.02c0-2.52-.01-5.04-.01-7.56,2.32,0,5.31,0,7.63,0h7.94v7.58h7.96c0,2.63.01,5.26.02,7.89h0v7.9h15.58c0-2.63,0-5.27,0-7.9,5.23,0,10.46,0,15.93,0,0-2.69,0-4.97,0-7.25,2.54.11,5.07.22,7.61.34.11,1.87.22,3.73.33,5.6.09-1.02.18-2.04.28-3.07-.09,1.03-.18,2.05-.28,3.07,0,3.07,0,6.14,0,9.21h23.54c0-2.63,0-5.26,0-7.89h-1.9c.64,0,1.27,0,1.9,0,2.66,0,5.31,0,7.97,0,0,0,0,0,0,0h0c2.45,0,4.91,0,7.68,0v-7.57h7.9v7.57h7.3c.11-2.63.22-5.26.33-7.89.11,0,.22,0,.33,0-.11,0-.22,0-.33,0-.11,2.63-.22,5.26-.33,7.89.22,0,.44,0,.66,0v7.9h31.5c0-2.52,0-5.05,0-7.57h-1.91c.64,0,1.27,0,1.91,0,5.2-.11,10.4-.21,15.6-.32,2.64,0,5.28,0,7.92-.01h.04c0-2.51-.01-5.04-.02-7.57,2.65,0,5.31,0,7.96,0h0c2.54-.11,5.08-.22,7.62-.33,0,5.27,0,10.53,0,15.8h31.5c0-5.26,0-10.51,0-15.77h0c0,5.26,0,10.51,0,15.77h15.91v-7.89c2.55,0,5.09-.01,7.63-.02v-15.46c0-2.63,0-5.26,0-7.89V.16ZM62.31,8.09s0,0,0,0h0s0,0,0,0h0Zm-7.96,7.89s0,0,0,0c-5.19,0-10.39,0-15.58,0h0c5.19,0,10.39,0,15.58,0h0c0-2.64,0-5.26,0-7.89h0c0,2.63,0,5.25,0,7.88Zm-15.58-7.98v1.13c0-.31,0-.65,0-1.04v-.09Zm0,5.99v1-1Zm9.52-5.99h-.77c.28,0,.54,0,.77,0Zm-9.52,5.19c0-1.53,0-1.03,0-1.2v1.2Zm0-2.3c0-.25,0-.54,0-.9v.9Zm-23.86,12.67h0c0,2.61,0,5.22,0,7.83h0c0-2.61,0-5.22,0-7.84,0,0,0,0,0,0,5.3.11,10.6.22,15.9.32,0-.45,0-.86.01-1.26,0,.4,0,.81-.01,1.26-5.3-.11-10.6-.22-15.9-.32Zm47.42,7.87h0c-.12,0-.24.02-.35.03.12,0,.24-.02.35-.03Zm.02-23.35c.39,0,.73,0,1.04,0h-1.04Zm1.32,0c1.13,0,1.74.01,2.07.01h-2.07Zm2.3.02c.11,0,.14,0,.15,0h-.15Zm.15,0h0,0Zm.15,0c.05,0,.13,0,.23,0h-.23Zm2.32.02c.07,0,.15,0,.23,0h-.23Zm1.34,6.62c0-.38,0-.75,0-1.13v-.18c0,.45,0,.89,0,1.31Zm81.23-6.65h0c-.55,0-1.11,0-1.66,0,.55,0,1.11,0,1.66,0Zm-25.87,0h0s0,0,0,0Zm-7.94-.02h0c-5.31,0-10.61,0-15.92.01h0c5.31,0,10.61,0,15.92-.01Zm-7.97,15.48c-2.65,0-5.3,0-7.95,0h0c2.65,0,5.3,0,7.95,0,2.65,0,5.3,0,7.95.01h0c-2.65,0-5.3,0-7.95-.01Zm188.98,7.91c-2.65,0-5.3,0-7.95,0h0c2.65,0,5.3,0,7.95,0,0-2.52,0-5.05,0-7.57-2.65-.11-5.3-.22-7.95-.33h0c2.65.11,5.3.22,7.95.33,0,2.52,0,5.05,0,7.57h0Zm-31.5-7.91h0c0-2.52-.01-5.03-.02-7.55h0c0,2.52.01,5.03.02,7.55Zm-47.4-15.46c0,2.63,0,5.26,0,7.9,0-2.63,0-5.26,0-7.9h0Zm-31.5,7.9h0v1.81c0-.6,0-1.2,0-1.8,0,0,0,0,0,0Zm7.96,9.7c0-.61,0-1.2,0-1.8h0v1.8Zm7.96-9.71c2.65,0,5.3,0,7.94,0v-1.9c0,.64,0,1.27,0,1.9h0c-2.65,0-5.3,0-7.94,0Zm39.45-7.89v-.03h0s0,.03,0,.03Zm15.59,23.37c0-2.63,0-5.27,0-7.9,0-2.52,0-5.04,0-7.57h0s0,0,0,0c0,2.52,0,5.04,0,7.57,0,2.63,0,5.27,0,7.9h0Zm7.96-7.9h0c2.64,0,5.28.02,7.92.02-.1,2.62-.2,5.25-.3,7.87.1-2.62.2-5.25.3-7.87-2.64,0-5.28-.02-7.92-.03Z"/>
      <g class="cls-8">
        <rect class="cls-6" y="-8.65" width="612" height="56.66"/>
      </g>
    </g>
  </g>
</svg>