<?xml version="1.0" encoding="UTF-8"?>
<svg id="Capa_2" data-name="Capa 2" xmlns="http://www.w3.org/2000/svg" xmlns:xlink="http://www.w3.org/1999/xlink" viewBox="0 0 612 75.73">
  <defs>
    <style>
      .cls-1 {
        clip-path: url(#clippath);
      }

      .cls-2 {
        fill: none;
      }

      .cls-2, .cls-3, .cls-4, .cls-5, .cls-6, .cls-7, .cls-8, .cls-9, .cls-10, .cls-11, .cls-12, .cls-13, .cls-14, .cls-15, .cls-16, .cls-17, .cls-18 {
        stroke-width: 0px;
      }

      .cls-3 {
        fill: #c5a162;
      }

      .cls-4 {
        fill: #d2ae6f;
      }

      .cls-5 {
        fill: #deba7b;
      }

      .cls-6 {
        fill: #d0ad6d;
      }

      .cls-7 {
        fill: #caa667;
      }

      .cls-8 {
        fill: #cca768;
      }

      .cls-9 {
        fill: #dbb879;
      }

      .cls-10 {
        fill: #e2be7f;
      }

      .cls-11 {
        fill: #d6b272;
      }

      .cls-12 {
        fill: #d4b071;
      }

      .cls-13 {
        fill: #d9b577;
      }

      .cls-14 {
        fill: #d7b374;
      }

      .cls-15 {
        fill: #bf9a5b;
      }

      .cls-16 {
        fill: #f3d091;
      }

      .cls-17 {
        fill: #e9c586;
      }

      .cls-18 {
        fill: #e5c283;
      }
    </style>
    <clipPath id="clippath">
      <rect class="cls-2" x="0" width="612" height="38.79"/>
    </clipPath>
  </defs>
  <g id="Capa_1-2" data-name="Capa 1">
    <g>
      <g>
        <path class="cls-13" d="m550.02,75.72h23.21v-7.9h7.96v-7.57c-.12-7.22.39-7.89,7.96-7.66v-7.15c0-.33,0-.66,0-.99h0c-5.19,0-10.72,0-15.91,0v7.9c0,2.43,0,4.86,0,7.37-2.72.18-5.08.34-7.72.52v7.57c-2.83,0-5.35,0-7.87,0-2.54,0-5.08,0-7.62,0,0,2.63,0,5.26,0,7.89Z"/>
        <path class="cls-14" d="m541.73,36.55c0,.33,0,.66,0,.99,0,6.7,0,1.43,0,6.7h-7.62v-7.68l-.03-.02h-7.81"/>
        <path class="cls-14" d="m510.58,36.56c2.45,0,4.91,0,7.61,0v7.89h.34c2.44,0,4.88,0,7.63,0v15.48h7.96v-7.58c2.9,0,5.42,0,7.94,0,0-2.19,0-5.65,0-7.85l7.63-.05.08-7.9"/>
        <path class="cls-12" d="m463.16,75.72c5.3,0,10.61,0,15.91,0-.11-3.1.03-6.23-.37-9.3-.78-6.1,1.97-7.58,7.44-6.11.19,2.12.37,4.16.56,6.19.11-1.87.22-3.73.33-5.6-.11-2.85-.22-5.7-.33-8.55-2.54,0-5.09,0-7.63,0-2.65,0-5.3,0-7.95,0,0,2.63,0,5.27,0,7.9v7.57h-7.94c0,2.63,0,5.26,0,7.89Z"/>
        <path class="cls-13" d="m589.06,36.56c0,2.52.08,5.37.08,7.9,0,0,0,0,0,0,2.54.11,5.41-.11,7.96,0,.11,2.53-.11,5.38,0,7.91,2.54,0,5.08,0,7.62-.01,2.32,0,4.95.01,7.27.01v-15.81h-7.27c0,.78,0-.76,0,0v7.36h-7.63v-7.37h0"/>
        <path class="cls-5" d="m400.17,75.72h23.87c0-2.63,0-5.27,0-7.9-2.56,0-5.13,0-7.96,0v-7.57h-8v7.9h-7.91c0,2.52,0,5.05,0,7.57Z"/>
        <path class="cls-6" d="m345.18,36.54v7.92h7.92c2.65,0,5.3-.01,7.95-.02,0-2.63,0-5.26,0-7.89,0,0,0,0,0,0h-8.15"/>
        <path class="cls-6" d="m597.11,67.57c0,2.63,0,5.51,0,8.15h14.9v-15.71c-2.21,0-5.06-.08-7.27-.08l-.14,7.64h-7.48Z"/>
        <path class="cls-11" d="m486.69,36.55h7.95v7.88c5.31,0,10.62,0,15.93.01h0c0-2.62,0-5.26.01-7.89,0,0-.02-.02-.02-.02"/>
        <path class="cls-11" d="m447.25,36.55c.11,2.63.22,5.27.33,7.9,3.87,0,7.74,0,11.61,0,.55,0,1.1,0,1.65,0,.55,0,1.11,0,1.66,0,.22,0,.45,0,.67-.01,0-2.63,0-5.26,0-7.89"/>
        <path class="cls-11" d="m439.62,36.55h-15.58c0,3.4,0,6.8,0,10.2,2.54,0,5.08,0,7.62.01,2.65,0,5.31,0,7.96,0v-7.9c0-.77,0-1.53,0-2.3Z"/>
        <path class="cls-3" d="m306.01,44.45c5.2,0,10.4,0,15.6,0,0-2.63,0-5.27-.01-7.9v.02c-2.64,0-5.3-.02-7.95-.02-2.55,0-5.09,0-7.64-.01"/>
        <path class="cls-10" d="m416.08,36.55c0,5.26,0,10.53,0,15.79h.01c2.65.01,5.3,0,7.95,0,0-2.63,0-5.27,0-7.9,0-3.4,0-4.49,0-7.89"/>
        <path class="cls-4" d="m573.23,37.87c0,1.65,0,3.29,0,4.94"/>
        <path class="cls-4" d="m573.23,44.45c5.19,0,10.72,0,15.91,0,0-2.52-.08-5.37-.08-7.9h-15.83"/>
        <path class="cls-3" d="m321.59,75.72h7.96c0-5.26,0-10.51,0-15.77-2.65.1-5.3.19-7.96.29,0,2.53,0,5.06,0,7.58,0,2.63,0,5.26,0,7.9Z"/>
        <path class="cls-17" d="m400.17,75.72c0-2.52,0-5.05,0-7.57-5.2-.11-10.4-.21-15.6-.32,0,2.63,0,5.26.01,7.89h15.58Z"/>
        <path class="cls-11" d="m526.15,75.72h15.58c0-2.63,0-5.26,0-7.89-5.19,0-10.38,0-15.58-.01,0,0,0,0,0,0v7.9Z"/>
        <path class="cls-8" d="m329.55,59.95c0,5.26,0,10.51,0,15.77h7.63c.11-2.63.22-5.27.33-7.9-.1-2.62-.2-5.25-.3-7.87-2.55-.01-5.11-.02-7.66-.03v.03Z"/>
        <path class="cls-4" d="m486.7,75.72c0-3.07,0-6.14,0-9.21-.18-2.04-.37-4.08-.56-6.19-5.47-1.47-8.22.01-7.44,6.11.39,3.06.26,6.19.37,9.3,2.54,0,5.08,0,7.63,0Z"/>
        <path class="cls-13" d="m368.66,36.55v7.91c2.66,0,5.31,0,7.96,0,0-2.63,0-5.27,0-7.9"/>
        <path class="cls-14" d="m565.6,36.56c0,2.41.01,5.37.02,7.79l7.61.02c0-.44,0-1.12,0-1.55,0-1.65,0-3.29,0-4.94v-1.31"/>
        <path class="cls-6" d="m321.59,75.72c0-2.63,0-5.26,0-7.9-2.65,0-5.31,0-7.96,0,0,2.63,0,5.26,0,7.9h7.96Z"/>
        <path class="cls-16" d="m384.59,75.72c0-2.63,0-5.26-.01-7.89-2.64,0-5.28,0-7.92-.01l-.02,7.9h7.96Z"/>
        <path class="cls-9" d="m455.2,67.82c0,2.63,0,5.27,0,7.9h7.96c0-2.63,0-5.26,0-7.89-2.66,0-5.31,0-7.97,0Z"/>
        <path class="cls-5" d="m518.2,67.82v7.9h7.96v-7.9c-2.65,0-5.3,0-7.96,0Z"/>
        <path class="cls-7" d="m581.19,67.82h-7.96v7.9h7.96c0-2.63,0-5.27,0-7.9h0Z"/>
        <path class="cls-5" d="m612,60.01v-7.65c-2.32,0-4.95-.01-7.27-.01,0,2.53,0,5.05,0,7.58"/>
        <path class="cls-5" d="m557.64,67.81h7.87v-7.57c2.64-.18,5-.34,7.72-.52v-7.37c-5.19,0-10.39,0-15.58,0,0,2.52,0,5.04,0,7.57,0,2.63,0,5.26,0,7.9Z"/>
        <path class="cls-12" d="m581.19,60.25c5.3-.11,10.6-.22,15.9-.32,0-2.52.01-5.04.02-7.57-.11-2.53.11-5.38,0-7.91-2.54.22-5.41.77-7.96.99v7.15c-10.16-.23-7.96-2.55-7.96,7.66Z"/>
        <path class="cls-11" d="m573.23,44.36l-7.61-.02-7.97.1s0,.02,0,.02c0,2.63,0,5.25,0,7.88h0c5.19,0,10.39,0,15.58,0"/>
        <path class="cls-18" d="m557.64,67.81c0-2.63,0-5.26,0-7.9-2.65,0-5.3,0-7.95,0v.02c-.01,2.62-.02,5.24-.02,7.86.12,0,.24.02.35.03,2.54,0,5.08,0,7.62,0Z"/>
        <path class="cls-11" d="m589.15,45.44c2.54-.22,5.41-.77,7.96-.99-2.54-.11-5.41.11-7.96,0,0,.33,0,.66,0,.99Z"/>
        <path class="cls-6" d="m518.2,67.82c2.65,0,5.3,0,7.96,0,0,0,0,0,0,0,0-2.63.01-5.26.02-7.89v-15.48c-2.75,0-5.19,0-7.63,0-.19,2.56-.37,5.13-.57,7.9h-7.39c0,2.52,0,5.05,0,7.57h7.63v7.9Z"/>
        <path class="cls-5" d="m526.17,59.93c0,2.63-.01,5.26-.02,7.89,5.19,0,10.38,0,15.58.01,0,0,.04-.05.04-.05,0-2.52,0-5.03,0-7.84h7.92v-.02c0-2.52.01-5.04.01-7.56h-6.97c-.22,0-.44,0-.66,0h-7.94v7.58h-7.96Z"/>
        <path class="cls-10" d="m557.65,36.56c-2.54,0-5.33,0-7.87,0l-.08,7.9s0,0,0,0c2.65,0,5.31,0,7.96.01,0,0,0-.02,0-.02,0-2.63,0-5.26,0-7.89Z"/>
        <path class="cls-13" d="m510.57,52.35h7.39c.2-2.77.39-5.33.57-7.9-.11,0-.23,0-.34,0-2.54,0-5.08,0-7.62,0,0,0,0,0,0,0,0,2.63,0,5.27,0,7.9Z"/>
        <path class="cls-18" d="m510.57,44.45c2.54,0,5.08,0,7.62,0,0-2.51,0-5.01,0-7.89-2.7,0-5.15,0-7.61,0,0,2.63,0,5.26-.01,7.89Z"/>
        <path class="cls-10" d="m542.07,44.5c0-1.76,0,1.76,0,0,0-.33,0-7.61,0-7.94-2.54,0-5.41,0-7.94,0,0,2.49,0,5.24,0,7.94"/>
        <path class="cls-12" d="m542.07,52.35c2.32,0,5.31,0,7.63,0h0c0-2.64,0-5.28,0-7.91,0,0,0,0,0,0l-7.63.05v7.85Z"/>
        <path class="cls-11" d="m542.73,52.35c-.22-2.19-.44-4.39-.66-6.58,0,2.19,0,4.39,0,6.58.22,0,.44,0,.66,0Z"/>
        <path class="cls-10" d="m510.57,52.35c0-2.63,0-5.27,0-7.9-5.31,0-10.62,0-15.93-.01-2.65,0-5.3,0-7.94,0h0c0,2.64,0,5.27,0,7.91.11,2.85.22,5.7.33,8.55,2.54-.11,5.07-.22,7.61-.34,0-.21.02-.43.02-.64,0-2.43,0-4.86,0-7.37h7.95v7.35c2.65,0,5.3,0,7.95,0,0,0,0,0,0,0,0-2.52,0-5.05,0-7.57Z"/>
        <path class="cls-9" d="m459.18,44.45c-3.87,0-7.74,0-11.61,0v7.9h15.91v7.57c2.54.11,5.08.22,7.62.33,0-2.63,0-5.27,0-7.9-.19-2.19-.37-4.38-.55-6.52-2.59-1.63-5.78,1.13-8.07-1.38-.55,0-1.11,0-1.66,0-.55.85-1.1.85-1.65,0Z"/>
        <path class="cls-5" d="m462.5,44.45c2.29,2.52,5.48-.25,8.07,1.38.18,2.13.37,4.32.55,6.52,2.65,0,5.3,0,7.95,0,0-2.55,0-5.09,0-7.89h7.63s0,0,0,0c0-2.63,0-5.26,0-7.89,0,0,0,0,0,0-5.19,0-10.38,0-15.57,0,0,2.53,0,5.06,0,7.89h-7.96c-.22,0-.45,0-.67.01Z"/>
        <path class="cls-10" d="m471.11,60.25c-2.54-.11-5.08-.22-7.62-.33-2.65.1-5.3.21-7.96.31-.11,2.53-.23,5.06-.34,7.59,0,0,0,0,0,0,2.66,0,5.31,0,7.97,0,2.52,0,5.05,0,7.94,0v-7.57Z"/>
        <path class="cls-13" d="m486.7,44.45h-7.63c0,2.8,0,5.35,0,7.89,2.54,0,5.09,0,7.63,0,0-2.63,0-5.26,0-7.9Z"/>
        <path class="cls-17" d="m597.11,52.36c0,2.52-.01,5.04-.02,7.57,0,0,0,0,0,0,2.54,0,5.09,0,7.63,0,0-2.53,0-5.05,0-7.58-2.54,0-5.08,0-7.62.01Z"/>
        <path class="cls-14" d="m604.73,36.56c-2.54,0-5.08,0-7.63,0v7.9c2.56,0,4.86-.03,7.63-.03,0-2.52,0-5.44,0-7.86Z"/>
        <path class="cls-10" d="m376.65,67.82c2.64,0,5.28,0,7.92.01,5.2.11,10.4.21,15.6.32,2.54,0,5.08,0,7.91,0v-7.9c2.86,0,5.43,0,8,0,0-2.63,0-5.26,0-7.89,0,0-.01-.01-.01-.01-2.65,0-5.3,0-7.96,0-2.65,0-5.3,0-7.94,0,0,2.44,0,4.87,0,7.39h-7.63v-7.38c-2.65,0-5.3,0-7.95,0v7.9h-7.97c0,2.53-.01,5.05-.02,7.58h.04Z"/>
        <path class="cls-14" d="m416.09,52.36c0,2.63,0,5.26,0,7.89,0,2.4,0,4.79,0,7.57,2.83,0,5.39,0,7.96,0,2.54,0,5.08,0,7.63,0,.22,0,.44,0,.66,0-.11-2.63-.22-5.26-.33-7.89-.11,0-.22,0-.33,0-2.45,0-4.91,0-7.63,0v-7.57h0c-2.65,0-5.3,0-7.95,0Z"/>
        <path class="cls-13" d="m431.66,59.92c.11,0,.22,0,.33,0,2.54.11,5.08.22,7.62.33,2.52,0,5.05,0,7.9,0v7.57c2.77,0,5.23,0,7.68,0,.11-2.53.23-5.06.34-7.59-.11-2.63-.22-5.26-.33-7.88h-7.63v-7.9c-.11-2.63-.22-5.27-.33-7.9-2.54,0-5.08,0-7.63,0v7.9c0,2.55,0,5.09,0,7.9h-7.96,0c0,2.53,0,5.05,0,7.57Z"/>
        <path class="cls-12" d="m439.62,60.25c-2.54-.11-5.08-.22-7.62-.33.11,2.63.22,5.26.33,7.89,2.3,0,4.61,0,7.3,0v-7.57Z"/>
        <path class="cls-6" d="m494.66,59.93c0,.21-.02.43-.02.64,0,2.28,0,4.55,0,7.25,5.47,0,10.7,0,15.93,0,0-2.63,0-5.27,0-7.9-2.65,0-5.3,0-7.95,0-2.65,0-5.3,0-7.95.01Z"/>
        <path class="cls-14" d="m604.73,59.93c-2.54,0-5.09,0-7.63,0,0,2.63,0,5.26,0,7.89,2.5,0,5.01,0,7.48,0"/>
        <path class="cls-5" d="m361.04,44.44c-2.65,0-5.3.01-7.95.02,0,2.63-.01,5.27-.02,7.9h0c2.55,0,5.09,0,7.96,0v7.57c2.54.11,5.08.22,7.63.32,0,0,0,0,0,0,0-2.63,0-5.27,0-7.9,0-2.63,0-5.26,0-7.89,0,0,0-.03,0-.03-2.54,0-5.08,0-7.62,0Z"/>
        <path class="cls-12" d="m345.15,67.82c2.65,0,5.29,0,7.94,0,0-2.63,0-5.27,0-7.9-2.65,0-5.31,0-7.96,0,0,2.63.01,5.27.02,7.9Z"/>
        <path class="cls-15" d="m345.13,59.91c2.65,0,5.31,0,7.96,0,0-2.52,0-5.04,0-7.57,0,0,0,0,0,0-2.64,0-5.28,0-7.92,0,0,2.52-.01,5.04-.02,7.56h-.01Z"/>
        <path class="cls-5" d="m376.61,67.83c0-2.53.01-5.05.02-7.58-2.65,0-5.31,0-7.96,0,0,0,0,0,0,0,0,2.4,0,4.79,0,7.58h7.94Z"/>
        <path class="cls-14" d="m345.16,52.36c2.64,0,5.28,0,7.92,0,0-2.63.01-5.27.02-7.9-2.52,0-5.03,0-7.92,0v-7.92c-5.46,0-10.55,0-15.64,0-2.65,0-5.3,0-7.94,0,0,2.63,0,5.27.01,7.9,0,0,0,0,0,0,2.55,0,5.1,0,7.95,0v7.91h0c5.2,0,10.41,0,15.61.01Z"/>
        <path class="cls-4" d="m361.04,44.44c2.54,0,5.08,0,7.62,0,0-2.5,0-5,0-7.88-2.71,0-5.16,0-7.62,0,0,2.63,0,5.26,0,7.89Z"/>
        <path class="cls-8" d="m486.69,36.55c0,2.63,0,5.26,0,7.89,2.65,0,5.3,0,7.94,0,0-2.5,0-5.01,0-7.88h-7.95Z"/>
        <path class="cls-8" d="m463.17,44.44h7.96c0-2.83,0-5.36,0-7.89-2.65,0-5.31,0-7.96,0,0,2.63,0,5.26,0,7.89Z"/>
        <path class="cls-5" d="m459.18,44.45c.55.85,1.1.85,1.65,0-.55,0-1.1,0-1.65,0Z"/>
        <path class="cls-10" d="m431.66,52.35h7.96c0-2.8,0-5.35,0-7.9-2.65,0-5.31,0-7.96,0,0,2.63,0,5.26,0,7.89Z"/>
        <path class="cls-18" d="m431.66,52.35c0-2.63,0-5.26,0-7.89-2.54,0-5.08,0-7.62-.01,0,2.63,0,5.27,0,7.9,0,0,0,0,0,0,2.54,0,5.09,0,7.63,0h0Z"/>
        <path class="cls-8" d="m306.01,44.45c0,2.63,0,5.26,0,7.89,2.54,0,5.08,0,7.62,0,2.66,0,5.31,0,7.97.01v-.02c0-2.63,0-5.27,0-7.9,0,0,0,0,0,0-5.2,0-10.4,0-15.6,0Z"/>
        <path class="cls-17" d="m408.12,52.34c2.65,0,5.3,0,7.96,0,0-5.26,0-10.53,0-15.79-2.66,0-5.31.01-7.97.02,0,5.26,0,10.52,0,15.78Z"/>
        <path class="cls-11" d="m573.23,37.87c0,1.65,0,3.29,0,4.94,0-1.65,0-3.29,0-4.94Z"/>
        <path class="cls-15" d="m345.15,67.82c0-2.63-.01-5.27-.02-7.9,0,0,.01.01.01.01-2.64,0-5.29.02-7.93.03.1,2.62.2,5.25.3,7.87,2.55,0,5.09,0,7.64,0Z"/>
        <path class="cls-13" d="m321.6,60.24c2.65-.1,5.3-.19,7.96-.29,0,0,0-.03,0-.03,0-2.52,0-5.04,0-7.57,0,0,0,0,0,0-2.65,0-5.31,0-7.96,0,0,0,0,.02,0,.02,0,2.52,0,5.04,0,7.56,0,.11,0,.21,0,.32Z"/>
        <path class="cls-8" d="m321.6,60.24c0-.11,0-.21,0-.32-2.65.11-5.3.22-7.95.33,0,2.52,0,5.05,0,7.57,0,0,0,0,0,0,2.65,0,5.31,0,7.96,0,0-2.53,0-5.06,0-7.58Z"/>
        <path class="cls-4" d="m329.55,52.35c0,2.52,0,5.04,0,7.57,2.55.01,5.1.02,7.66.03,2.64,0,5.29-.02,7.93-.02,0-2.52.01-5.04.02-7.56-5.2,0-10.41,0-15.61-.01Z"/>
        <path class="cls-5" d="m384.58,36.55c-2.65,0-5.3,0-7.95,0,0,2.63,0,5.27,0,7.9,0,0,0,0,0,0,2.65,0,5.29,0,7.94.01,0-2.64,0-5.27.01-7.91Z"/>
        <path class="cls-18" d="m368.67,44.46c0,2.63,0,5.26,0,7.89,2.55,0,5.09,0,7.96,0v-7.9s0,0,0,0c-2.65,0-5.3,0-7.96,0Z"/>
        <path class="cls-18" d="m557.65,36.56c0,2.63,0,5.26,0,7.89l7.97-.1c0-2.41-.01-5.37-.02-7.79-2.65,0-5.3,0-7.95,0Z"/>
        <path class="cls-16" d="m549.69,59.94h-7.92c0,2.8,0,5.32,0,7.84,2.63,0,5.27.01,7.9.02,0-2.62,0-5.24.01-7.86Z"/>
        <path class="cls-11" d="m306,67.81c2.54,0,5.09.01,7.63.02,0-2.52,0-5.05,0-7.57,0-2.63,0-5.27,0-7.9-2.54,0-5.08,0-7.62,0"/>
        <path class="cls-16" d="m408.12,52.34c0-5.26,0-10.52,0-15.78-5.19,0-10.38-.01-15.57-.02,0,0,0,.02,0,.02,0,2.63,0,5.26,0,7.89,2.44,0,4.87,0,7.63,0v7.89h0c2.65,0,5.3,0,7.94,0Z"/>
        <path class="cls-17" d="m392.54,44.45c0-2.63,0-5.26,0-7.89-2.66,0-5.31,0-7.97,0,0,2.64,0,5.27-.01,7.91,0,2.63.02,5.26.03,7.88,2.65,0,5.3,0,7.95,0h0c0-2.63,0-5.26,0-7.9Z"/>
        <path class="cls-17" d="m549.7,52.36c0,2.52,0,5.04,0,7.56,2.65,0,5.3,0,7.95,0,0-2.52,0-5.04,0-7.57,0,0,0,0,0,0-2.65,0-5.31,0-7.96,0h0Z"/>
        <path class="cls-13" d="m549.69,52.35c2.65,0,5.31,0,7.96,0,0-2.63,0-5.26,0-7.88-2.65,0-5.31,0-7.96-.01,0,2.63,0,5.27,0,7.9Z"/>
        <path class="cls-9" d="m494.66,59.93c2.65,0,5.3,0,7.95-.01,0-2.38,0-4.77,0-7.35h-7.95v7.37Z"/>
        <path class="cls-14" d="m455.2,52.35c.11,2.63.22,5.26.33,7.88,2.65-.1,5.3-.21,7.96-.31v-7.57h-8.29Z"/>
        <path class="cls-14" d="m384.59,52.34c0-2.63-.02-5.26-.03-7.88-2.65,0-5.29,0-7.94-.01v7.9c-2.86,0-5.41,0-7.96,0,0,2.63,0,5.27,0,7.9,2.65,0,5.31,0,7.96,0,2.54,0,5.08,0,7.97,0v-7.9Z"/>
        <path class="cls-5" d="m392.54,52.35v7.38h7.63c0-2.51,0-4.95,0-7.39,0,0,0,0,0,0-2.54,0-5.09,0-7.63,0h0Z"/>
        <path class="cls-5" d="m431.67,52.35c-2.54,0-5.09,0-7.63,0,0,2.4,0,4.79,0,7.57,2.72,0,5.17,0,7.63,0,0-2.52,0-5.04,0-7.57Z"/>
        <path class="cls-3" d="m321.59,52.34c2.65,0,5.31,0,7.96,0,0-2.53,0-5.06,0-7.91-2.86,0-5.41,0-7.95,0,0,2.63,0,5.27,0,7.9Z"/>
        <path class="cls-4" d="m313.64,52.35c0,2.63,0,5.27,0,7.9,2.65-.11,5.3-.22,7.95-.33,0-2.52,0-5.04,0-7.56-2.66,0-5.31,0-7.97-.01Z"/>
        <path class="cls-10" d="m392.54,52.35c2.54,0,5.09,0,7.63,0,0-2.53,0-5.05,0-7.89-2.76,0-5.2,0-7.63,0,0,2.63,0,5.26,0,7.9Z"/>
        <path class="cls-13" d="m61.98,75.73h-23.21v-7.9h-7.96v-7.57c.12-7.22-.39-7.89-7.96-7.66v-7.15c0-.33,0-.66,0-.99h0c5.19,0,10.72,0,15.91,0v7.9c0,2.43,0,4.86,0,7.37,2.72.18,5.08.34,7.72.52v7.57c2.83,0,5.35,0,7.87,0,2.54,0,5.08,0,7.62,0,0,2.63,0,5.26,0,7.89Z"/>
        <path class="cls-14" d="m70.27,36.56c0,.33,0,.66,0,.99,0,6.7,0,1.43,0,6.7h7.62v-7.68l.03-.02h7.81"/>
        <path class="cls-14" d="m101.42,36.57c-2.45,0-4.91,0-7.61,0v7.89h-.34c-2.44,0-4.88,0-7.63,0v15.48h-7.96v-7.58c-2.9,0-5.42,0-7.94,0,0-2.19,0-5.65,0-7.85l-7.63-.05-.08-7.9"/>
        <path class="cls-12" d="m148.84,75.73c-5.3,0-10.61,0-15.91,0,.11-3.1-.03-6.23.37-9.3.78-6.1-1.97-7.58-7.44-6.11-.19,2.12-.37,4.16-.56,6.19-.11-1.87-.22-3.73-.33-5.6.11-2.85.22-5.7.33-8.55,2.54,0,5.09,0,7.63,0,2.65,0,5.3,0,7.95,0,0,2.63,0,5.27,0,7.9v7.57h7.94c0,2.63,0,5.26,0,7.89Z"/>
        <path class="cls-13" d="m22.94,36.56c0,2.52-.08,5.37-.08,7.9,0,0,0,0,0,0-2.54.11-5.41-.11-7.96,0-.11,2.53.11,5.38,0,7.91-2.54,0-5.08,0-7.62-.01-2.32,0-4.95.01-7.27.01v-15.81h7.27c0,.78,0-.76,0,0v7.36h7.63v-7.37h0"/>
        <path class="cls-5" d="m211.83,75.73h-23.87c0-2.63,0-5.27,0-7.9,2.56,0,5.13,0,7.96,0v-7.57h8v7.9h7.91c0,2.52,0,5.05,0,7.57Z"/>
        <path class="cls-7" d="m30.81,60.26v7.57h0c-2.55,0-5.09,0-7.96,0v7.9h-7.96c0-2.63,0-5.27,0-7.9,0-2.63,0-5.26,0-7.89h0c5.3.11,10.6.22,15.9.33Z"/>
        <path class="cls-13" d="m258.91,75.73h-7.96c0-5.27,0-10.53,0-15.8v-7.57c2.87,0,5.42,0,7.96,0,0,2.52,0,5.04,0,7.57,0,2.63,0,5.27,0,7.9,0,2.63,0,5.26,0,7.89Z"/>
        <path class="cls-6" d="m266.82,36.55v7.92h-7.92c-2.65,0-5.3-.01-7.95-.02,0-2.63,0-5.26,0-7.89,0,0,0,0,0,0h8.15"/>
        <path class="cls-6" d="m14.89,67.58c0,2.63,0,5.51,0,8.15H0v-15.71c2.21,0,5.06-.08,7.27-.08l.14,7.64h7.48Z"/>
        <path class="cls-11" d="m125.31,36.56h-7.95v7.88c-5.31,0-10.62,0-15.93.01h0c0-2.62,0-5.26-.01-7.89,0,0,.02-.02.02-.02"/>
        <path class="cls-11" d="m164.75,36.56c-.11,2.63-.22,5.27-.33,7.9-3.87,0-7.74,0-11.61,0-.55,0-1.1,0-1.65,0-.55,0-1.11,0-1.66,0-.22,0-.45,0-.67-.01,0-2.63,0-5.26,0-7.89"/>
        <path class="cls-11" d="m172.38,36.56h15.58c0,3.4,0,6.8,0,10.2-2.54,0-5.08,0-7.62.01-2.65,0-5.31,0-7.96,0v-7.9c0-.77,0-1.53,0-2.3Z"/>
        <path class="cls-3" d="m305.99,44.46c-5.2,0-10.4,0-15.6,0,0-2.63,0-5.27.01-7.9v.02c2.64,0,5.3-.02,7.95-.02,2.55,0,5.09,0,7.64-.01"/>
        <path class="cls-10" d="m195.92,36.56c0,5.26,0,10.53,0,15.79h-.01c-2.65.01-5.3,0-7.95,0,0-2.63,0-5.27,0-7.9,0-3.4,0-4.49,0-7.89"/>
        <path class="cls-4" d="m38.77,37.88c0,1.65,0,3.29,0,4.94"/>
        <path class="cls-4" d="m38.77,44.46c-5.19,0-10.72,0-15.91,0,0-2.52.08-5.37.08-7.9h15.83"/>
        <path class="cls-7" d="m258.91,75.73c0-2.63,0-5.26,0-7.89,2.65,0,5.29,0,7.94,0,2.55,0,5.09,0,7.64,0,.11,2.63.22,5.27.33,7.9h-15.91Z"/>
        <path class="cls-3" d="m290.41,75.73h-7.96c0-5.26,0-10.51,0-15.77,2.65.1,5.3.19,7.96.29,0,2.53,0,5.06,0,7.58,0,2.63,0,5.26,0,7.9Z"/>
        <path class="cls-8" d="m282.45,59.96c0,5.26,0,10.51,0,15.77h-7.63c-.11-2.63-.22-5.27-.33-7.9.1-2.62.2-5.25.3-7.87,2.55-.01,5.11-.02,7.66-.03v.03Z"/>
        <path class="cls-13" d="m101.43,67.82c0,2.63,0,5.27,0,7.9h-7.63v-15.8c2.8,0,5.22,0,7.63,0,0,0,0,0,0,0,0,2.63,0,5.27,0,7.9Z"/>
        <path class="cls-4" d="m125.3,75.73c0-3.07,0-6.14,0-9.21.18-2.04.37-4.08.56-6.19,5.47-1.47,8.22.01,7.44,6.11-.39,3.06-.26,6.19-.37,9.3-2.54,0-5.08,0-7.63,0Z"/>
        <path class="cls-13" d="m243.34,36.56v7.91c-2.66,0-5.31,0-7.96,0,0-2.63,0-5.27,0-7.9"/>
        <path class="cls-14" d="m46.4,36.56c0,2.41-.01,5.37-.02,7.79l-7.61.02c0-.44,0-1.12,0-1.55,0-1.65,0-3.29,0-4.94v-1.31"/>
        <path class="cls-9" d="m70.27,67.84c0,2.63,0,5.26,0,7.89h-8.29c0-2.63,0-5.26,0-7.89.12,0,.24-.02.35-.03,2.63,0,5.27-.01,7.9-.02l.04.05Z"/>
        <path class="cls-6" d="m290.41,75.73c0-2.63,0-5.26,0-7.9,2.65,0,5.31,0,7.96,0,0,2.63,0,5.26,0,7.9h-7.96Z"/>
        <path class="cls-5" d="m93.8,67.82v7.9h-7.96v-7.9c2.65,0,5.3,0,7.96,0Z"/>
        <path class="cls-12" d="m180.34,75.73v-7.9c2.54,0,5.08,0,7.63,0,0,2.63,0,5.27,0,7.9h-7.63Z"/>
        <path class="cls-5" d="m0,60.02v-7.65c2.32,0,4.95-.01,7.27-.01,0,2.53,0,5.05,0,7.58"/>
        <path class="cls-5" d="m54.36,67.82h-7.87v-7.57c-2.64-.18-5-.34-7.72-.52v-7.37c5.19,0,10.39,0,15.58,0,0,2.52,0,5.04,0,7.57,0,2.63,0,5.26,0,7.9Z"/>
        <path class="cls-12" d="m30.81,60.26c-5.3-.11-10.6-.22-15.9-.32,0-2.52-.01-5.04-.02-7.57.11-2.53-.11-5.38,0-7.91,2.54.22,5.41.77,7.96.99v7.15c10.16-.23,7.96-2.55,7.96,7.66Z"/>
        <path class="cls-11" d="m38.77,44.37l7.61-.02,7.97.1s0,.02,0,.02c0,2.63,0,5.25,0,7.88h0c-5.19,0-10.39,0-15.58,0"/>
        <path class="cls-18" d="m54.36,67.82c0-2.63,0-5.26,0-7.9,2.65,0,5.3,0,7.95,0v.02c.01,2.62.02,5.24.02,7.86-.12,0-.24.02-.35.03-2.54,0-5.08,0-7.62,0Z"/>
        <path class="cls-11" d="m22.85,45.45c-2.54-.22-5.41-.77-7.96-.99,2.54-.11,5.41.11,7.96,0,0,.33,0,.66,0,.99Z"/>
        <path class="cls-6" d="m93.8,67.82c-2.65,0-5.3,0-7.96,0,0,0,0,0,0,0,0-2.63-.01-5.26-.02-7.89v-15.48c2.75,0,5.19,0,7.63,0,.19,2.56.37,5.13.57,7.9h7.39c0,2.52,0,5.05,0,7.57h-7.63v7.9Z"/>
        <path class="cls-10" d="m54.35,36.56c2.54,0,5.33,0,7.87,0l.08,7.9s0,0,0,0c-2.65,0-5.31,0-7.96.01,0,0,0-.02,0-.02,0-2.63,0-5.26,0-7.89Z"/>
        <path class="cls-13" d="m101.43,52.36h-7.39c-.2-2.77-.39-5.33-.57-7.9.11,0,.23,0,.34,0,2.54,0,5.08,0,7.62,0,0,0,0,0,0,0,0,2.63,0,5.27,0,7.9Z"/>
        <path class="cls-18" d="m101.43,44.46c-2.54,0-5.08,0-7.62,0,0-2.51,0-5.01,0-7.89,2.7,0,5.15,0,7.61,0,0,2.63,0,5.26.01,7.89Z"/>
        <path class="cls-10" d="m69.93,44.51c0-1.76,0,1.76,0,0,0-.33,0-7.61,0-7.94,2.54,0,5.41,0,7.94,0,0,2.49,0,5.24,0,7.94"/>
        <path class="cls-12" d="m69.93,52.36c-2.32,0-5.31,0-7.63,0h0c0-2.64,0-5.28,0-7.91,0,0,0,0,0,0l7.63.05v7.85Z"/>
        <path class="cls-11" d="m69.27,52.36c.22-2.19.44-4.39.66-6.58,0,2.19,0,4.39,0,6.58-.22,0-.44,0-.66,0Z"/>
        <path class="cls-10" d="m101.43,52.36c0-2.63,0-5.27,0-7.9,5.31,0,10.62,0,15.93-.01,2.65,0,5.3,0,7.94,0h0c0,2.64,0,5.27,0,7.91-.11,2.85-.22,5.7-.33,8.55-2.54-.11-5.07-.22-7.61-.34,0-.21-.02-.43-.02-.64,0-2.43,0-4.86,0-7.37h-7.95v7.35c-2.65,0-5.3,0-7.95,0,0,0,0,0,0,0,0-2.52,0-5.05,0-7.57Z"/>
        <path class="cls-9" d="m152.82,44.46c3.87,0,7.74,0,11.61,0v7.9h-15.91v7.57c-2.54.11-5.08.22-7.62.33,0-2.63,0-5.27,0-7.9.19-2.19.37-4.38.55-6.52,2.59-1.63,5.78,1.13,8.07-1.38.55,0,1.11,0,1.66,0,.55.85,1.1.85,1.65,0Z"/>
        <path class="cls-5" d="m149.5,44.46c-2.29,2.52-5.48-.25-8.07,1.38-.18,2.13-.37,4.32-.55,6.52-2.65,0-5.3,0-7.95,0,0-2.55,0-5.09,0-7.89h-7.63s0,0,0,0c0-2.63,0-5.26,0-7.89,0,0,0,0,0,0,5.19,0,10.38,0,15.57,0,0,2.53,0,5.06,0,7.89h7.96c.22,0,.45,0,.67.01Z"/>
        <path class="cls-10" d="m140.89,60.26c2.54-.11,5.08-.22,7.62-.33,2.65.1,5.3.21,7.96.31.11,2.53.23,5.06.34,7.59,0,0,0,0,0,0-2.66,0-5.31,0-7.97,0-2.52,0-5.05,0-7.94,0v-7.57Z"/>
        <path class="cls-13" d="m125.3,44.46h7.63c0,2.8,0,5.35,0,7.89-2.54,0-5.09,0-7.63,0,0-2.63,0-5.26,0-7.9Z"/>
        <path class="cls-17" d="m14.89,52.37c0,2.52.01,5.04.02,7.57,0,0,0,0,0,0-2.54,0-5.09,0-7.63,0,0-2.53,0-5.05,0-7.58,2.54,0,5.08,0,7.62.01Z"/>
        <path class="cls-14" d="m7.27,36.57c2.54,0,5.08,0,7.63,0v7.9c-2.56,0-4.86-.03-7.63-.03,0-2.52,0-5.44,0-7.86Z"/>
        <path class="cls-10" d="m235.35,67.83c-2.64,0-5.28,0-7.92.01-5.2.11-10.4.21-15.6.32-2.54,0-5.08,0-7.91,0v-7.9c-2.86,0-5.43,0-8,0,0-2.63,0-5.26,0-7.89,0,0,.01-.01.01-.01,2.65,0,5.3,0,7.96,0,2.65,0,5.3,0,7.94,0,0,2.44,0,4.87,0,7.39h7.63v-7.38c2.65,0,5.3,0,7.95,0v7.9h7.97c0,2.53.01,5.05.02,7.58h-.04Z"/>
        <path class="cls-14" d="m195.91,52.37c0,2.63,0,5.26,0,7.89,0,2.4,0,4.79,0,7.57-2.83,0-5.39,0-7.96,0-2.54,0-5.08,0-7.63,0-.22,0-.44,0-.66,0,.11-2.63.22-5.26.33-7.89.11,0,.22,0,.33,0,2.45,0,4.91,0,7.63,0v-7.57h0c2.65,0,5.3,0,7.95,0Z"/>
        <path class="cls-13" d="m180.34,59.93c-.11,0-.22,0-.33,0-2.54.11-5.08.22-7.62.33-2.52,0-5.05,0-7.9,0v7.57c-2.77,0-5.23,0-7.68,0-.11-2.53-.23-5.06-.34-7.59.11-2.63.22-5.26.33-7.88h7.63v-7.9c.11-2.63.22-5.27.33-7.9,2.54,0,5.08,0,7.63,0v7.9c0,2.55,0,5.09,0,7.9h7.96,0c0,2.53,0,5.05,0,7.57Z"/>
        <path class="cls-12" d="m172.38,60.26c2.54-.11,5.08-.22,7.62-.33-.11,2.63-.22,5.26-.33,7.89-2.3,0-4.61,0-7.3,0v-7.57Z"/>
        <path class="cls-6" d="m117.34,59.94c0,.21.02.43.02.64,0,2.28,0,4.55,0,7.25-5.47,0-10.7,0-15.93,0,0-2.63,0-5.27,0-7.9,2.65,0,5.3,0,7.95,0,2.65,0,5.3,0,7.95.01Z"/>
        <path class="cls-14" d="m7.27,59.94c2.54,0,5.09,0,7.63,0,0,2.63,0,5.26,0,7.89-2.5,0-5.01,0-7.48,0"/>
        <path class="cls-5" d="m250.96,44.45c2.65,0,5.3.01,7.95.02,0,2.63.01,5.27.02,7.9h0c-2.55,0-5.09,0-7.96,0v7.57c-2.54.11-5.08.22-7.63.32,0,0,0,0,0,0,0-2.63,0-5.27,0-7.9,0-2.63,0-5.26,0-7.89,0,0,0-.03,0-.03,2.54,0,5.08,0,7.62,0Z"/>
        <path class="cls-12" d="m266.85,67.83c-2.65,0-5.29,0-7.94,0,0-2.63,0-5.27,0-7.9,2.65,0,5.31,0,7.96,0,0,2.63-.01,5.27-.02,7.9Z"/>
        <path class="cls-15" d="m266.87,59.92c-2.65,0-5.31,0-7.96,0,0-2.52,0-5.04,0-7.57,0,0,0,0,0,0,2.64,0,5.28,0,7.92,0,0,2.52.01,5.04.02,7.56h.01Z"/>
        <path class="cls-14" d="m266.84,52.37c-2.64,0-5.28,0-7.92,0,0-2.63-.01-5.27-.02-7.9,2.52,0,5.03,0,7.92,0v-7.92c5.46,0,10.55,0,15.64,0,2.65,0,5.3,0,7.94,0,0,2.63,0,5.27-.01,7.9,0,0,0,0,0,0-2.55,0-5.1,0-7.95,0v7.91h0c-5.2,0-10.41,0-15.61.01Z"/>
        <path class="cls-4" d="m250.96,44.45c-2.54,0-5.08,0-7.62,0,0-2.5,0-5,0-7.88,2.71,0,5.16,0,7.62,0,0,2.63,0,5.26,0,7.89Z"/>
        <path class="cls-8" d="m125.31,36.56c0,2.63,0,5.26,0,7.89-2.65,0-5.3,0-7.94,0,0-2.5,0-5.01,0-7.88h7.95Z"/>
        <path class="cls-8" d="m148.83,44.45h-7.96c0-2.83,0-5.36,0-7.89,2.65,0,5.31,0,7.96,0,0,2.63,0,5.26,0,7.89Z"/>
        <path class="cls-5" d="m152.82,44.46c-.55.85-1.1.85-1.65,0,.55,0,1.1,0,1.65,0Z"/>
        <path class="cls-10" d="m180.34,52.36h-7.96c0-2.8,0-5.35,0-7.9,2.65,0,5.31,0,7.96,0,0,2.63,0,5.26,0,7.89Z"/>
        <path class="cls-18" d="m180.34,52.36c0-2.63,0-5.26,0-7.89,2.54,0,5.08,0,7.62-.01,0,2.63,0,5.27,0,7.9,0,0,0,0,0,0-2.54,0-5.09,0-7.63,0h0Z"/>
        <path class="cls-8" d="m305.99,44.46c0,2.63,0,5.26,0,7.89-2.54,0-5.08,0-7.62,0-2.66,0-5.31,0-7.97.01v-.02c0-2.63,0-5.27,0-7.9,0,0,0,0,0,0,5.2,0,10.4,0,15.6,0Z"/>
        <path class="cls-17" d="m203.88,52.35c-2.65,0-5.3,0-7.96,0,0-5.26,0-10.53,0-15.79,2.66,0,5.31.01,7.97.02,0,5.26,0,10.52,0,15.78Z"/>
        <path class="cls-11" d="m38.77,37.88c0,1.65,0,3.29,0,4.94,0-1.65,0-3.29,0-4.94Z"/>
        <path class="cls-15" d="m266.85,67.83c0-2.63.01-5.27.02-7.9,0,0-.01.01-.01.01,2.64,0,5.29.02,7.93.03-.1,2.62-.2,5.25-.3,7.87-2.55,0-5.09,0-7.64,0Z"/>
        <path class="cls-13" d="m290.4,60.25c-2.65-.1-5.3-.19-7.96-.29,0,0,0-.03,0-.03,0-2.52,0-5.04,0-7.57,0,0,0,0,0,0,2.65,0,5.31,0,7.96,0,0,0,0,.02,0,.02,0,2.52,0,5.04,0,7.56,0,.11,0,.21,0,.32Z"/>
        <path class="cls-8" d="m290.4,60.25c0-.11,0-.21,0-.32,2.65.11,5.3.22,7.95.33,0,2.52,0,5.05,0,7.57,0,0,0,0,0,0-2.65,0-5.31,0-7.96,0,0-2.53,0-5.06,0-7.58Z"/>
        <path class="cls-4" d="m282.45,52.36c0,2.52,0,5.04,0,7.57-2.55.01-5.1.02-7.66.03-2.64,0-5.29-.02-7.93-.02,0-2.52-.01-5.04-.02-7.56,5.2,0,10.41,0,15.61-.01Z"/>
        <path class="cls-5" d="m227.42,36.56c2.65,0,5.3,0,7.95,0,0,2.63,0,5.27,0,7.9,0,0,0,0,0,0-2.65,0-5.29,0-7.94.01,0-2.64,0-5.27-.01-7.91Z"/>
        <path class="cls-18" d="m243.33,44.47c0,2.63,0,5.26,0,7.89-2.55,0-5.09,0-7.96,0v-7.9s0,0,0,0c2.65,0,5.3,0,7.96,0Z"/>
        <path class="cls-18" d="m54.35,36.56c0,2.63,0,5.26,0,7.89l-7.97-.1c0-2.41.01-5.37.02-7.79,2.65,0,5.3,0,7.95,0Z"/>
        <path class="cls-16" d="m62.31,59.95h7.92c0,2.8,0,5.32,0,7.84-2.63,0-5.27.01-7.9.02,0-2.62,0-5.24-.01-7.86Z"/>
        <path class="cls-11" d="m306,67.82c-2.54,0-5.09.01-7.63.02,0-2.52,0-5.05,0-7.57,0-2.63,0-5.27,0-7.9,2.54,0,5.08,0,7.62,0"/>
        <path class="cls-16" d="m203.88,52.35c0-5.26,0-10.52,0-15.78,5.19,0,10.38-.01,15.57-.02,0,0,0,.02,0,.02,0,2.63,0,5.26,0,7.89-2.44,0-4.87,0-7.63,0v7.89h0c-2.65,0-5.3,0-7.94,0Z"/>
        <path class="cls-17" d="m219.46,44.46c0-2.63,0-5.26,0-7.89,2.66,0,5.31,0,7.97,0,0,2.64,0,5.27.01,7.91,0,2.63-.02,5.26-.03,7.88-2.65,0-5.3,0-7.95,0h0c0-2.63,0-5.26,0-7.9Z"/>
        <path class="cls-17" d="m62.3,52.37c0,2.52,0,5.04,0,7.56-2.65,0-5.3,0-7.95,0,0-2.52,0-5.04,0-7.57,0,0,0,0,0,0,2.65,0,5.31,0,7.96,0h0Z"/>
        <path class="cls-13" d="m62.31,52.36c-2.65,0-5.31,0-7.96,0,0-2.63,0-5.26,0-7.88,2.65,0,5.31,0,7.96-.01,0,2.63,0,5.27,0,7.9Z"/>
        <path class="cls-9" d="m117.34,59.94c-2.65,0-5.3,0-7.95-.01,0-2.38,0-4.77,0-7.35h7.95v7.37Z"/>
        <path class="cls-14" d="m156.8,52.36c-.11,2.63-.22,5.26-.33,7.88-2.65-.1-5.3-.21-7.96-.31v-7.57h8.29Z"/>
        <path class="cls-14" d="m227.41,52.35c0-2.63.02-5.26.03-7.88,2.65,0,5.29,0,7.94-.01v7.9c2.86,0,5.41,0,7.96,0,0,2.63,0,5.27,0,7.9-2.65,0-5.31,0-7.96,0-2.54,0-5.08,0-7.97,0v-7.9Z"/>
        <path class="cls-5" d="m219.46,52.36v7.38h-7.63c0-2.51,0-4.95,0-7.39,0,0,0,0,0,0,2.54,0,5.09,0,7.63,0h0Z"/>
        <path class="cls-5" d="m180.33,52.36c2.54,0,5.09,0,7.63,0,0,2.4,0,4.79,0,7.57-2.72,0-5.17,0-7.63,0,0-2.52,0-5.04,0-7.57Z"/>
        <path class="cls-3" d="m290.41,52.35c-2.65,0-5.31,0-7.96,0,0-2.53,0-5.06,0-7.91,2.86,0,5.41,0,7.95,0,0,2.63,0,5.27,0,7.9Z"/>
        <path class="cls-4" d="m298.36,52.36c0,2.63,0,5.27,0,7.9-2.65-.11-5.3-.22-7.95-.33,0-2.52,0-5.04,0-7.56,2.66,0,5.31,0,7.97-.01Z"/>
        <path class="cls-10" d="m219.46,52.36c-2.54,0-5.09,0-7.63,0,0-2.53,0-5.05,0-7.89,2.76,0,5.2,0,7.63,0,0,2.63,0,5.26,0,7.9Z"/>
      </g>
      <g class="cls-1">
        <g>
          <g id="wptLPQ.tif">
            <g>
              <path class="cls-13" d="m550.03,0h23.21v7.9h7.96v7.57c-.12,7.22.39,7.89,7.96,7.66v7.15c0,.33,0,.66,0,.99h0c-5.19,0-10.72,0-15.91,0v-7.9c0-2.43,0-4.86,0-7.37-2.72-.18-5.08-.34-7.72-.52v-7.57c-2.83,0-5.35,0-7.87,0-2.54,0-5.08,0-7.62,0,0-2.63,0-5.26,0-7.89Z"/>
              <path class="cls-14" d="m541.74,39.17c0-.33,0-.66,0-.99,0-6.7,0-1.43,0-6.7h-7.62v7.68l-.03.02h-7.81"/>
              <path class="cls-14" d="m510.58,39.17c2.45,0,4.91,0,7.61,0v-7.89h.34c2.44,0,4.88,0,7.63,0v-15.48h7.96v7.58c2.9,0,5.42,0,7.94,0,0,2.19,0,5.65,0,7.85l7.63.05.08,7.9"/>
              <path class="cls-12" d="m463.16,0c5.3,0,10.61,0,15.91,0-.11,3.1.03,6.23-.37,9.3-.78,6.1,1.97,7.58,7.44,6.11.19-2.12.37-4.16.56-6.19.11,1.87.22,3.73.33,5.6-.11,2.85-.22,5.7-.33,8.55-2.54,0-5.09,0-7.63,0-2.65,0-5.3,0-7.95,0,0-2.63,0-5.27,0-7.9v-7.57h-7.94c0-2.63,0-5.26,0-7.89Z"/>
              <path class="cls-13" d="m589.06,39.17c0-2.52.08-5.37.08-7.9,0,0,0,0,0,0,2.54-.11,5.41.11,7.96,0,.11-2.53-.11-5.38,0-7.91,2.54,0,5.08,0,7.62.01,2.32,0,4.95-.01,7.27-.01v15.81h-7.27c0-.78,0,.76,0,0v-7.36h-7.63v7.37h0"/>
              <path class="cls-5" d="m400.17,0h23.87c0,2.63,0,5.27,0,7.9-2.56,0-5.13,0-7.96,0v7.57h-8v-7.9h-7.91c0-2.52,0-5.05,0-7.57Z"/>
              <path class="cls-6" d="m431.67,0h23.54c0,2.63,0,5.27,0,7.9,0,0,0,0,0,0-2.45,0-4.91,0-7.68,0v7.57h-7.9v-7.57h-7.3c-.22,0-.44,0-.66,0V0Z"/>
              <path class="cls-9" d="m487.04,14.82c-.11-1.87-.22-3.73-.33-5.6,0-3.07,0-6.14,0-9.21h23.87c0,2.63,0,5.27,0,7.9-5.23,0-10.46,0-15.93,0v7.25c-2.54-.11-5.07-.22-7.61-.34Z"/>
              <path class="cls-7" d="m581.19,15.47v-7.57h0c2.55,0,5.09,0,7.96,0V0h7.96c0,2.63,0,5.27,0,7.9,0,2.63,0,5.26,0,7.89h0c-5.3-.11-10.6-.22-15.9-.33Z"/>
              <path class="cls-13" d="m353.09,0h7.96c0,5.27,0,10.53,0,15.8v7.57c-2.87,0-5.42,0-7.96,0,0-2.52,0-5.04,0-7.57,0-2.63,0-5.27,0-7.9,0-2.63,0-5.26,0-7.89Z"/>
              <path class="cls-12" d="m361.05,15.8c0-5.27,0-10.53,0-15.8h15.58l.02,7.9h-.04c-2.56-.01-5.12-.01-7.94-.01v7.58c-2.54.11-5.08.22-7.63.32Z"/>
              <path class="cls-6" d="m345.18,39.18v-7.92h7.92c2.65,0,5.3.01,7.95.02,0,2.63,0,5.26,0,7.89,0,0,0,0,0,0h-8.15"/>
              <path class="cls-6" d="m597.11,8.16c0-2.63,0-5.51,0-8.15h14.9v15.71c-2.21,0-5.06.08-7.27.08l-.14-7.64h-7.48Z"/>
              <path class="cls-11" d="m486.7,39.17h7.95v-7.88c5.31,0,10.62,0,15.93-.01h0c0,2.62,0,5.26.01,7.89,0,0-.02.02-.02.02"/>
              <path class="cls-11" d="m447.25,39.18c.11-2.63.22-5.27.33-7.9,3.87,0,7.74,0,11.61,0,.55,0,1.1,0,1.65,0,.55,0,1.11,0,1.66,0,.22,0,.45,0,.67.01,0,2.63,0,5.26,0,7.89"/>
              <path class="cls-11" d="m439.63,39.17h-15.58c0-3.4,0-6.8,0-10.2,2.54,0,5.08,0,7.62-.01,2.65,0,5.31,0,7.96,0v7.9c0,.77,0,1.53,0,2.3Z"/>
              <path class="cls-3" d="m306.01,31.27c5.2,0,10.4,0,15.6,0,0,2.63,0,5.27-.01,7.9v-.02c-2.64,0-5.3.02-7.95.02-2.55,0-5.09,0-7.64.01"/>
              <path class="cls-10" d="m416.08,39.17v-15.79s0-.01,0-.01c2.65,0,5.3,0,7.95,0,0,2.63,0,5.27,0,7.9,0,3.4,0,4.49,0,7.89"/>
              <path class="cls-4" d="m573.24,37.86c0-1.65,0-3.29,0-4.94"/>
              <path class="cls-4" d="m573.23,31.28c5.19,0,10.72,0,15.91,0,0,2.52-.08,5.37-.08,7.9h-15.83"/>
              <path class="cls-7" d="m353.09,0c0,2.63,0,5.26,0,7.89-2.65,0-5.29,0-7.94,0-2.55,0-5.09,0-7.64,0-.11-2.63-.22-5.27-.33-7.9h15.91Z"/>
              <path class="cls-3" d="m321.6,0h7.96c0,5.26,0,10.51,0,15.77-2.65-.1-5.3-.19-7.96-.29,0-2.53,0-5.06,0-7.58,0-2.63,0-5.26,0-7.9Z"/>
              <path class="cls-17" d="m400.17,0c0,2.52,0,5.05,0,7.57-5.2.11-10.4.21-15.6.32,0-2.63,0-5.26.01-7.89h15.58Z"/>
              <path class="cls-11" d="m526.16,0h15.58c0,2.63,0,5.26,0,7.89-5.19,0-10.38,0-15.58.01,0,0,0,0,0,0V0Z"/>
              <path class="cls-8" d="m329.55,15.78c0-5.26,0-10.51,0-15.77h7.63c.11,2.63.22,5.27.33,7.9-.1,2.62-.2,5.25-.3,7.87-2.55.01-5.11.02-7.66.03v-.03Z"/>
              <path class="cls-13" d="m510.57,7.91c0-2.63,0-5.27,0-7.9h7.63v15.8c-2.8,0-5.22,0-7.63,0,0,0,0,0,0,0,0-2.63,0-5.27,0-7.9Z"/>
              <path class="cls-4" d="m486.7,0c0,3.07,0,6.14,0,9.21-.18,2.04-.37,4.08-.56,6.19-5.47,1.47-8.22-.01-7.44-6.11.39-3.06.26-6.19.37-9.3,2.54,0,5.08,0,7.63,0Z"/>
              <path class="cls-13" d="m368.67,39.18v-7.91c2.66,0,5.31,0,7.96,0,0,2.63,0,5.27,0,7.9"/>
              <path class="cls-14" d="m565.61,39.17c0-2.41.01-5.37.02-7.79l7.61-.02c0,.44,0,1.12,0,1.55,0,1.65,0,3.29,0,4.94v1.31"/>
              <path class="cls-9" d="m541.73,7.9c0-2.63,0-5.26,0-7.89h8.29c0,2.63,0,5.26,0,7.89-.12,0-.24.02-.35.03-2.63,0-5.27.01-7.9.02l-.04-.05Z"/>
              <path class="cls-6" d="m321.6,0c0,2.63,0,5.26,0,7.9-2.65,0-5.31,0-7.96,0,0-2.63,0-5.26,0-7.9h7.96Z"/>
              <path class="cls-16" d="m384.59,0c0,2.63,0,5.26-.01,7.89-2.64,0-5.28,0-7.92.01l-.02-7.9h7.96Z"/>
              <path class="cls-9" d="m455.21,7.91c0-2.63,0-5.27,0-7.9h7.96c0,2.63,0,5.26,0,7.89-2.66,0-5.31,0-7.97,0Z"/>
              <path class="cls-5" d="m518.2,7.91V0h7.96v7.9c-2.65,0-5.3,0-7.96,0Z"/>
              <path class="cls-7" d="m581.19,7.91h-7.96V0h7.96c0,2.63,0,5.27,0,7.9h0Z"/>
              <path class="cls-4" d="m581.19,7.91c0-2.63,0-5.27,0-7.9h7.96v7.9h-7.96Z"/>
              <path class="cls-12" d="m431.67,0v7.9c-2.54,0-5.08,0-7.63,0,0-2.63,0-5.27,0-7.9h7.63Z"/>
              <path class="cls-3" d="m313.64,0c0,2.63,0,5.26,0,7.9,0,0,0,0,0,0-2.54,0-5.09.01-7.63.02,0,0,0-.01,0-.01,0-2.63,0-5.27,0-7.9h7.63Z"/>
              <path class="cls-5" d="m612,15.72v7.65c-2.32,0-4.95.01-7.27.01,0-2.53,0-5.05,0-7.58"/>
              <path class="cls-5" d="m557.65,7.91h7.87v7.57c2.64.18,5,.34,7.72.52v7.37c-5.19,0-10.39,0-15.58,0,0-2.52,0-5.04,0-7.57,0-2.63,0-5.26,0-7.9Z"/>
              <path class="cls-12" d="m581.19,15.47c5.3.11,10.6.22,15.9.32,0,2.52.01,5.04.02,7.57-.11,2.53.11,5.38,0,7.91-2.54-.22-5.41-.77-7.96-.99v-7.15c-10.16.23-7.96,2.55-7.96-7.66Z"/>
              <path class="cls-11" d="m573.23,31.37l-7.61.02-7.97-.1s0-.02,0-.02c0-2.63,0-5.25,0-7.88h0c5.19,0,10.39,0,15.58,0"/>
              <path class="cls-18" d="m557.65,7.91c0,2.63,0,5.26,0,7.9-2.65,0-5.3,0-7.95,0v-.02c-.01-2.62-.02-5.24-.02-7.86.12,0,.24-.02.35-.03,2.54,0,5.08,0,7.62,0Z"/>
              <path class="cls-11" d="m589.15,30.29c2.54.22,5.41.77,7.96.99-2.54.11-5.41-.11-7.96,0,0-.33,0-.66,0-.99Z"/>
              <path class="cls-6" d="m518.2,7.91c2.65,0,5.3,0,7.96,0,0,0,0,0,0,0,0,2.63.01,5.26.02,7.89v15.48c-2.75,0-5.19,0-7.63,0-.19-2.56-.37-5.13-.57-7.9h-7.39c0-2.52,0-5.05,0-7.57h7.63v-7.9Z"/>
              <path class="cls-5" d="m526.17,15.8c0-2.63-.01-5.26-.02-7.89,5.19,0,10.38,0,15.58-.01,0,0,.04.05.04.05,0,2.52,0,5.03,0,7.84h7.92v.02c0,2.52.01,5.04.01,7.56h-6.97c-.22,0-.44,0-.66,0h-7.94v-7.58h-7.96Z"/>
              <path class="cls-10" d="m557.65,39.17c-2.54,0-5.33,0-7.87,0l-.08-7.9s0,0,0,0c2.65,0,5.31,0,7.96-.01,0,0,0,.02,0,.02,0,2.63,0,5.26,0,7.89Z"/>
              <path class="cls-13" d="m510.57,23.38h7.39c.2,2.77.39,5.33.57,7.9-.11,0-.23,0-.34,0-2.54,0-5.08,0-7.62,0,0,0,0,0,0,0,0-2.63,0-5.27,0-7.9Z"/>
              <path class="cls-18" d="m510.57,31.27c2.54,0,5.08,0,7.62,0,0,2.51,0,5.01,0,7.89-2.7,0-5.15,0-7.61,0,0-2.63,0-5.26-.01-7.89Z"/>
              <path class="cls-10" d="m542.07,31.23c0,1.76,0-1.76,0,0,0,.33,0,7.61,0,7.94-2.54,0-5.41,0-7.94,0,0-2.49,0-5.24,0-7.94"/>
              <path class="cls-12" d="m542.07,23.38c2.32,0,5.31,0,7.63,0h0c0,2.64,0,5.28,0,7.91,0,0,0,0,0,0l-7.63-.05v-7.85Z"/>
              <path class="cls-11" d="m542.73,23.38c-.22,2.19-.44,4.39-.66,6.58,0-2.19,0-4.39,0-6.58.22,0,.44,0,.66,0Z"/>
              <path class="cls-10" d="m510.57,23.38c0,2.63,0,5.27,0,7.9-5.31,0-10.62,0-15.93.01-2.65,0-5.3,0-7.94,0h0c0-2.64,0-5.27,0-7.91.11-2.85.22-5.7.33-8.55,2.54.11,5.07.22,7.61.34,0,.21.02.43.02.64,0,2.43,0,4.86,0,7.37h7.95v-7.35c2.65,0,5.3,0,7.95,0,0,0,0,0,0,0,0,2.52,0,5.05,0,7.57Z"/>
              <path class="cls-9" d="m459.19,31.27c-3.87,0-7.74,0-11.61,0v-7.9h15.91v-7.57c2.54-.11,5.08-.22,7.62-.33,0,2.63,0,5.27,0,7.9-.19,2.19-.37,4.38-.55,6.52-2.59,1.63-5.78-1.13-8.07,1.38-.55,0-1.11,0-1.66,0-.55-.85-1.1-.85-1.65,0Z"/>
              <path class="cls-5" d="m462.5,31.27c2.29-2.52,5.48.25,8.07-1.38.18-2.13.37-4.32.55-6.52,2.65,0,5.3,0,7.95,0,0,2.55,0,5.09,0,7.89h7.63s0,0,0,0c0,2.63,0,5.26,0,7.89,0,0,0,0,0,0-5.19,0-10.38,0-15.57,0,0-2.53,0-5.06,0-7.89h-7.96c-.22,0-.45,0-.67-.01Z"/>
              <path class="cls-10" d="m471.11,15.47c-2.54.11-5.08.22-7.62.33-2.65-.1-5.3-.21-7.96-.31-.11-2.53-.23-5.06-.34-7.59,0,0,0,0,0,0,2.66,0,5.31,0,7.97,0,2.52,0,5.05,0,7.94,0v7.57Z"/>
              <path class="cls-13" d="m486.71,31.27h-7.63c0-2.8,0-5.35,0-7.89,2.54,0,5.09,0,7.63,0,0,2.63,0,5.26,0,7.9Z"/>
              <path class="cls-17" d="m597.11,23.37c0-2.52-.01-5.04-.02-7.57,0,0,0,0,0,0,2.54,0,5.09,0,7.63,0,0,2.53,0,5.05,0,7.58-2.54,0-5.08,0-7.62-.01Z"/>
              <path class="cls-14" d="m604.73,39.17c-2.54,0-5.08,0-7.63,0v-7.9c2.56,0,4.86.03,7.63.03,0,2.52,0,5.44,0,7.86Z"/>
              <path class="cls-10" d="m376.65,7.91c2.64,0,5.28,0,7.92-.01,5.2-.11,10.4-.21,15.6-.32,2.54,0,5.08,0,7.91,0v7.9c2.86,0,5.43,0,8,0,0,2.63,0,5.26,0,7.89,0,0-.01.01-.01.01-2.65,0-5.3,0-7.96,0-2.65,0-5.3,0-7.94,0,0-2.44,0-4.87,0-7.39h-7.63v7.38c-2.65,0-5.3,0-7.95,0v-7.9h-7.97c0-2.53-.01-5.05-.02-7.58h.04Z"/>
              <path class="cls-14" d="m416.09,23.37c0-2.63,0-5.26,0-7.89,0-2.4,0-4.79,0-7.57,2.83,0,5.39,0,7.96,0,2.54,0,5.08,0,7.63,0,.22,0,.44,0,.66,0-.11,2.63-.22,5.26-.33,7.89-.11,0-.22,0-.33,0-2.45,0-4.91,0-7.63,0v7.57h0c-2.65,0-5.3,0-7.95,0Z"/>
              <path class="cls-13" d="m431.67,15.81c.11,0,.22,0,.33,0,2.54-.11,5.08-.22,7.62-.33,2.52,0,5.05,0,7.9,0v-7.57c2.77,0,5.23,0,7.68,0,.11,2.53.23,5.06.34,7.59-.11,2.63-.22,5.26-.33,7.88h-7.63v7.9c-.11,2.63-.22,5.27-.33,7.9-2.54,0-5.08,0-7.63,0v-7.9c0-2.55,0-5.09,0-7.9h-7.96,0c0-2.53,0-5.05,0-7.57Z"/>
              <path class="cls-12" d="m439.62,15.48c-2.54.11-5.08.22-7.62.33.11-2.63.22-5.26.33-7.89,2.3,0,4.61,0,7.3,0v7.57Z"/>
              <path class="cls-6" d="m494.67,15.8c0-.21-.02-.43-.02-.64,0-2.28,0-4.55,0-7.25,5.47,0,10.7,0,15.93,0,0,2.63,0,5.27,0,7.9-2.65,0-5.3,0-7.95,0-2.65,0-5.3,0-7.95-.01Z"/>
              <path class="cls-14" d="m604.74,15.8c-2.54,0-5.09,0-7.63,0,0-2.63,0-5.26,0-7.89,2.5,0,5.01,0,7.48,0"/>
              <path class="cls-5" d="m361.05,31.29c-2.65,0-5.3-.01-7.95-.02,0-2.63-.01-5.27-.02-7.9h0c2.55,0,5.09,0,7.96,0v-7.57c2.54-.11,5.08-.22,7.63-.32,0,0,0,0,0,0,0,2.63,0,5.27,0,7.9,0,2.63,0,5.26,0,7.89,0,0,0,.03,0,.03-2.54,0-5.08,0-7.62,0Z"/>
              <path class="cls-12" d="m345.15,7.91c2.65,0,5.29,0,7.94,0,0,2.63,0,5.27,0,7.9-2.65,0-5.31,0-7.96,0,0-2.63.01-5.27.02-7.9Z"/>
              <path class="cls-15" d="m345.13,15.81c2.65,0,5.31,0,7.96,0,0,2.52,0,5.04,0,7.57,0,0,0,0,0,0-2.64,0-5.28,0-7.92,0,0-2.52-.01-5.04-.02-7.56h-.01Z"/>
              <path class="cls-5" d="m376.62,7.9c0,2.53.01,5.05.02,7.58-2.65,0-5.31,0-7.96,0,0,0,0,0,0,0,0-2.4,0-4.79,0-7.58h7.94Z"/>
              <path class="cls-14" d="m345.16,23.36c2.64,0,5.28,0,7.92,0,0,2.63.01,5.27.02,7.9-2.52,0-5.03,0-7.92,0v7.92c-5.46,0-10.55,0-15.64,0-2.65,0-5.3,0-7.94,0,0-2.63,0-5.27.01-7.9,0,0,0,0,0,0,2.55,0,5.1,0,7.95,0v-7.91h0c5.2,0,10.41,0,15.61-.01Z"/>
              <path class="cls-4" d="m361.05,31.29c2.54,0,5.08,0,7.62,0,0,2.5,0,5,0,7.88-2.71,0-5.16,0-7.62,0,0-2.63,0-5.26,0-7.89Z"/>
              <path class="cls-8" d="m486.7,39.17c0-2.63,0-5.26,0-7.89,2.65,0,5.3,0,7.94,0,0,2.5,0,5.01,0,7.88h-7.95Z"/>
              <path class="cls-8" d="m463.17,31.29h7.96c0,2.83,0,5.36,0,7.89-2.65,0-5.31,0-7.96,0,0-2.63,0-5.26,0-7.89Z"/>
              <path class="cls-5" d="m459.19,31.27c.55-.85,1.1-.85,1.65,0-.55,0-1.1,0-1.65,0Z"/>
              <path class="cls-10" d="m431.67,23.38h7.96c0,2.8,0,5.35,0,7.9-2.65,0-5.31,0-7.96,0,0-2.63,0-5.26,0-7.89Z"/>
              <path class="cls-18" d="m431.67,23.38c0,2.63,0,5.26,0,7.89-2.54,0-5.08,0-7.62.01,0-2.63,0-5.27,0-7.9,0,0,0,0,0,0,2.54,0,5.09,0,7.63,0h0Z"/>
              <path class="cls-8" d="m306.01,31.27c0-2.63,0-5.26,0-7.89,2.54,0,5.08,0,7.62,0,2.66,0,5.31,0,7.97-.01v.02c0,2.63,0,5.27,0,7.9,0,0,0,0,0,0-5.2,0-10.4,0-15.6,0Z"/>
              <path class="cls-17" d="m408.12,23.38c2.65,0,5.3,0,7.96,0,0,5.26,0,10.53,0,15.79-2.66,0-5.31-.01-7.97-.02,0-5.26,0-10.52,0-15.78Z"/>
              <path class="cls-11" d="m573.24,37.86c0-1.65,0-3.29,0-4.94,0,1.65,0,3.29,0,4.94Z"/>
              <path class="cls-15" d="m345.15,7.91c0,2.63-.01,5.27-.02,7.9,0,0,.01-.01.01-.01-2.64,0-5.29-.02-7.93-.03.1-2.62.2-5.25.3-7.87,2.55,0,5.09,0,7.64,0Z"/>
              <path class="cls-13" d="m321.6,15.49c2.65.1,5.3.19,7.96.29,0,0,0,.03,0,.03,0,2.52,0,5.04,0,7.57,0,0,0,0,0,0-2.65,0-5.31,0-7.96,0,0,0,0-.02,0-.02,0-2.52,0-5.04,0-7.56,0-.11,0-.21,0-.32Z"/>
              <path class="cls-8" d="m321.6,15.49c0,.11,0,.21,0,.32-2.65-.11-5.3-.22-7.95-.33,0-2.52,0-5.05,0-7.57,0,0,0,0,0,0,2.65,0,5.31,0,7.96,0,0,2.53,0,5.06,0,7.58Z"/>
              <path class="cls-4" d="m329.55,23.37c0-2.52,0-5.04,0-7.57,2.55-.01,5.1-.02,7.66-.03,2.64,0,5.29.02,7.93.02,0,2.52.01,5.04.02,7.56-5.2,0-10.41,0-15.61.01Z"/>
              <path class="cls-5" d="m384.58,39.17c-2.65,0-5.3,0-7.95,0,0-2.63,0-5.27,0-7.9,0,0,0,0,0,0,2.65,0,5.29,0,7.94-.01,0,2.64,0,5.27.01,7.91Z"/>
              <path class="cls-18" d="m368.68,31.27c0-2.63,0-5.26,0-7.89,2.55,0,5.09,0,7.96,0v7.9s0,0,0,0c-2.65,0-5.3,0-7.96,0Z"/>
              <path class="cls-18" d="m557.65,39.17c0-2.63,0-5.26,0-7.89l7.97.1c0,2.41-.01,5.37-.02,7.79-2.65,0-5.3,0-7.95,0Z"/>
              <path class="cls-16" d="m549.69,15.79h-7.92c0-2.8,0-5.32,0-7.84,2.63,0,5.27-.01,7.9-.02,0,2.62,0,5.24.01,7.86Z"/>
              <path class="cls-11" d="m306.01,7.92c2.54,0,5.09-.01,7.63-.02,0,2.52,0,5.05,0,7.57,0,2.63,0,5.27,0,7.9-2.54,0-5.08,0-7.62,0"/>
              <path class="cls-16" d="m408.12,23.38c0,5.26,0,10.52,0,15.78-5.19,0-10.38.01-15.57.02,0,0,0-.02,0-.02,0-2.63,0-5.26,0-7.89,2.44,0,4.87,0,7.63,0v-7.89h0c2.65,0,5.3,0,7.94,0Z"/>
              <path class="cls-17" d="m392.55,31.27c0,2.63,0,5.26,0,7.89-2.66,0-5.31,0-7.97,0,0-2.64,0-5.27-.01-7.91,0-2.63.02-5.26.03-7.88,2.65,0,5.3,0,7.95,0h0c0,2.63,0,5.26,0,7.9Z"/>
              <path class="cls-17" d="m549.7,23.37c0-2.52,0-5.04,0-7.56,2.65,0,5.3,0,7.95,0,0,2.52,0,5.04,0,7.57,0,0,0,0,0,0-2.65,0-5.31,0-7.96,0h0Z"/>
              <path class="cls-13" d="m549.7,23.38c2.65,0,5.31,0,7.96,0,0,2.63,0,5.26,0,7.88-2.65,0-5.31,0-7.96.01,0-2.63,0-5.27,0-7.9Z"/>
              <path class="cls-9" d="m494.67,15.8c2.65,0,5.3,0,7.95.01,0,2.38,0,4.77,0,7.35h-7.95v-7.37Z"/>
              <path class="cls-14" d="m455.21,23.38c.11-2.63.22-5.26.33-7.88,2.65.1,5.3.21,7.96.31v7.57h-8.29Z"/>
              <path class="cls-14" d="m384.6,23.38c0,2.63-.02,5.26-.03,7.88-2.65,0-5.29,0-7.94.01v-7.9c-2.86,0-5.41,0-7.96,0,0-2.63,0-5.27,0-7.9,2.65,0,5.31,0,7.96,0,2.54,0,5.08,0,7.97,0v7.9Z"/>
              <path class="cls-5" d="m392.55,23.38v-7.38h7.63c0,2.51,0,4.95,0,7.39,0,0,0,0,0,0-2.54,0-5.09,0-7.63,0h0Z"/>
              <path class="cls-5" d="m431.67,23.37c-2.54,0-5.09,0-7.63,0,0-2.4,0-4.79,0-7.57,2.72,0,5.17,0,7.63,0v7.57Z"/>
              <path class="cls-3" d="m321.59,23.38c2.65,0,5.31,0,7.96,0,0,2.53,0,5.06,0,7.91-2.86,0-5.41,0-7.95,0,0-2.63,0-5.27,0-7.9Z"/>
              <path class="cls-4" d="m313.64,23.37c0-2.63,0-5.27,0-7.9,2.65.11,5.3.22,7.95.33,0,2.52,0,5.04,0,7.56-2.66,0-5.31,0-7.97.01Z"/>
              <path class="cls-10" d="m392.55,23.38c2.54,0,5.09,0,7.63,0,0,2.53,0,5.05,0,7.89-2.76,0-5.2,0-7.63,0,0-2.63,0-5.26,0-7.9Z"/>
            </g>
          </g>
          <g id="wptLPQ.tif-2" data-name="wptLPQ.tif">
            <g>
              <path class="cls-13" d="m61.98,0h-23.21v7.9h-7.96v7.57c.12,7.22-.39,7.89-7.96,7.66v7.15c0,.33,0,.66,0,.99h0c5.19,0,10.72,0,15.91,0v-7.9c0-2.43,0-4.86,0-7.37,2.72-.18,5.08-.34,7.72-.52v-7.57c2.83,0,5.35,0,7.87,0,2.54,0,5.08,0,7.62,0,0-2.63,0-5.26,0-7.89Z"/>
              <path class="cls-14" d="m70.27,39.17c0-.33,0-.66,0-.99,0-6.7,0-1.43,0-6.7h7.62v7.68l.03.02h7.81"/>
              <path class="cls-14" d="m101.42,39.16c-2.45,0-4.91,0-7.61,0v-7.89h-.34c-2.44,0-4.88,0-7.63,0v-15.48h-7.96v7.58c-2.9,0-5.42,0-7.94,0,0,2.19,0,5.65,0,7.85l-7.63.05-.08,7.9"/>
              <path class="cls-12" d="m148.84,0c-5.3,0-10.61,0-15.91,0,.11,3.1-.03,6.23.37,9.3.78,6.1-1.97,7.58-7.44,6.11-.19-2.12-.37-4.16-.56-6.19-.11,1.87-.22,3.73-.33,5.6.11,2.85.22,5.7.33,8.55,2.54,0,5.09,0,7.63,0,2.65,0,5.3,0,7.95,0,0-2.63,0-5.27,0-7.9v-7.57h7.94c0-2.63,0-5.26,0-7.89Z"/>
              <path class="cls-13" d="m22.94,39.16c0-2.52-.08-5.37-.08-7.9,0,0,0,0,0,0-2.54-.11-5.41.11-7.96,0-.11-2.53.11-5.38,0-7.91-2.54,0-5.08,0-7.62.01-2.32,0-4.95-.01-7.27-.01v15.81h7.27c0-.78,0,.76,0,0v-7.36h7.63v7.37h0"/>
              <path class="cls-5" d="m211.83,0h-23.87c0,2.63,0,5.27,0,7.9,2.56,0,5.13,0,7.96,0v7.57h8v-7.9h7.91c0-2.52,0-5.05,0-7.57Z"/>
              <path class="cls-6" d="m180.34,0h-23.54c0,2.63,0,5.27,0,7.9,0,0,0,0,0,0,2.45,0,4.91,0,7.68,0v7.57h7.9v-7.57h7.3c.22,0,.44,0,.66,0V0Z"/>
              <path class="cls-9" d="m124.97,14.81c.11-1.87.22-3.73.33-5.6,0-3.07,0-6.14,0-9.21h-23.87c0,2.63,0,5.27,0,7.9,5.23,0,10.46,0,15.93,0v7.25c2.54-.11,5.07-.22,7.61-.34Z"/>
              <path class="cls-7" d="m30.81,15.47v-7.57h0c-2.55,0-5.09,0-7.96,0V0h-7.96c0,2.63,0,5.27,0,7.9,0,2.63,0,5.26,0,7.89h0c5.3-.11,10.6-.22,15.9-.33Z"/>
              <path class="cls-13" d="m258.91,0h-7.96c0,5.27,0,10.53,0,15.8v7.57c2.87,0,5.42,0,7.96,0,0-2.52,0-5.04,0-7.57,0-2.63,0-5.27,0-7.9,0-2.63,0-5.26,0-7.89Z"/>
              <path class="cls-12" d="m250.96,15.8c0-5.27,0-10.53,0-15.8h-15.58l-.02,7.9h.04c2.56-.01,5.12-.01,7.94-.01v7.58c2.54.11,5.08.22,7.63.32Z"/>
              <path class="cls-6" d="m266.83,39.17v-7.92h-7.92c-2.65,0-5.3.01-7.95.02,0,2.63,0,5.26,0,7.89,0,0,0,0,0,0h8.15"/>
              <path class="cls-6" d="m14.89,8.15c0-2.63,0-5.51,0-8.15H0v15.71c2.21,0,5.06.08,7.27.08l.14-7.64h7.48Z"/>
              <path class="cls-11" d="m125.31,39.17h-7.95v-7.88c-5.31,0-10.62,0-15.93-.01h0c0,2.62,0,5.26-.01,7.89,0,0,.02.02.02.02"/>
              <path class="cls-11" d="m164.76,39.17c-.11-2.63-.22-5.27-.33-7.9-3.87,0-7.74,0-11.61,0-.55,0-1.1,0-1.65,0-.55,0-1.11,0-1.66,0-.22,0-.45,0-.67.01,0,2.63,0,5.26,0,7.89"/>
              <path class="cls-11" d="m172.38,39.16h15.58c0-3.4,0-6.8,0-10.2-2.54,0-5.08,0-7.62-.01-2.65,0-5.31,0-7.96,0v7.9c0,.77,0,1.53,0,2.3Z"/>
              <path class="cls-3" d="m305.99,31.26c-5.2,0-10.4,0-15.6,0,0,2.63,0,5.27.01,7.9v-.02c2.64,0,5.3.02,7.95.02,2.55,0,5.09,0,7.64.01"/>
              <path class="cls-10" d="m195.92,39.17c0-5.26,0-10.53,0-15.79h-.01c-2.65-.01-5.3,0-7.95,0,0,2.63,0,5.27,0,7.9,0,3.4,0,4.49,0,7.89"/>
              <path class="cls-4" d="m38.77,37.85c0-1.65,0-3.29,0-4.94"/>
              <path class="cls-4" d="m38.77,31.27c-5.19,0-10.72,0-15.91,0,0,2.52.08,5.37.08,7.9h15.83"/>
              <path class="cls-7" d="m258.91,0c0,2.63,0,5.26,0,7.89,2.65,0,5.29,0,7.94,0,2.55,0,5.09,0,7.64,0,.11-2.63.22-5.27.33-7.9h-15.91Z"/>
              <path class="cls-3" d="m290.41,0h-7.96c0,5.26,0,10.51,0,15.77,2.65-.1,5.3-.19,7.96-.29,0-2.53,0-5.06,0-7.58,0-2.63,0-5.26,0-7.9Z"/>
              <path class="cls-17" d="m211.83,0c0,2.52,0,5.05,0,7.57,5.2.11,10.4.21,15.6.32,0-2.63,0-5.26-.01-7.89h-15.58Z"/>
              <path class="cls-11" d="m85.85,0h-15.58c0,2.63,0,5.26,0,7.89,5.19,0,10.38,0,15.58.01,0,0,0,0,0,0V0Z"/>
              <path class="cls-8" d="m282.45,15.77c0-5.26,0-10.51,0-15.77h-7.63c-.11,2.63-.22,5.27-.33,7.9.1,2.62.2,5.25.3,7.87,2.55.01,5.11.02,7.66.03v-.03Z"/>
              <path class="cls-13" d="m101.43,7.9c0-2.63,0-5.27,0-7.9h-7.63v15.8c2.8,0,5.22,0,7.63,0,0,0,0,0,0,0,0-2.63,0-5.27,0-7.9Z"/>
              <path class="cls-4" d="m125.3,0c0,3.07,0,6.14,0,9.21.18,2.04.37,4.08.56,6.19,5.47,1.47,8.22-.01,7.44-6.11-.39-3.06-.26-6.19-.37-9.3-2.54,0-5.08,0-7.63,0Z"/>
              <path class="cls-13" d="m243.34,39.17v-7.91c-2.66,0-5.31,0-7.96,0,0,2.63,0,5.27,0,7.9"/>
              <path class="cls-14" d="m46.4,39.16c0-2.41-.01-5.37-.02-7.79l-7.61-.02c0,.44,0,1.12,0,1.55,0,1.65,0,3.29,0,4.94v1.31"/>
              <path class="cls-9" d="m70.27,7.89c0-2.63,0-5.26,0-7.89h-8.29c0,2.63,0,5.26,0,7.89.12,0,.24.02.35.03,2.63,0,5.27.01,7.9.02l.04-.05Z"/>
              <path class="cls-6" d="m290.41,0c0,2.63,0,5.26,0,7.9,2.65,0,5.31,0,7.96,0,0-2.63,0-5.26,0-7.9h-7.96Z"/>
              <path class="cls-16" d="m227.42,0c0,2.63,0,5.26.01,7.89,2.64,0,5.28,0,7.92.01l.02-7.9h-7.96Z"/>
              <path class="cls-9" d="m156.8,7.9c0-2.63,0-5.27,0-7.9h-7.96c0,2.63,0,5.26,0,7.89,2.66,0,5.31,0,7.97,0Z"/>
              <path class="cls-5" d="m93.81,7.9V0h-7.96v7.9c2.65,0,5.3,0,7.96,0Z"/>
              <path class="cls-7" d="m30.81,7.9h7.96V0h-7.96c0,2.63,0,5.27,0,7.9h0Z"/>
              <path class="cls-4" d="m30.81,7.9c0-2.63,0-5.27,0-7.9h-7.96v7.9h7.96Z"/>
              <path class="cls-12" d="m180.34,0v7.9c2.54,0,5.08,0,7.63,0,0-2.63,0-5.27,0-7.9h-7.63Z"/>
              <path class="cls-3" d="m298.37,0c0,2.63,0,5.26,0,7.9,0,0,0,0,0,0,2.54,0,5.09.01,7.63.02,0,0,0-.01,0-.01,0-2.63,0-5.27,0-7.9h-7.63Z"/>
              <path class="cls-5" d="m0,15.71v7.65c2.32,0,4.95.01,7.27.01,0-2.53,0-5.05,0-7.58"/>
              <path class="cls-5" d="m54.36,7.9h-7.87v7.57c-2.64.18-5,.34-7.72.52v7.37c5.19,0,10.39,0,15.58,0,0-2.52,0-5.04,0-7.57,0-2.63,0-5.26,0-7.9Z"/>
              <path class="cls-12" d="m30.81,15.47c-5.3.11-10.6.22-15.9.32,0,2.52-.01,5.04-.02,7.57.11,2.53-.11,5.38,0,7.91,2.54-.22,5.41-.77,7.96-.99v-7.15c10.16.23,7.96,2.55,7.96-7.66Z"/>
              <path class="cls-11" d="m38.77,31.36l7.61.02,7.97-.1s0-.02,0-.02c0-2.63,0-5.25,0-7.88h0c-5.19,0-10.39,0-15.58,0"/>
              <path class="cls-18" d="m54.36,7.9c0,2.63,0,5.26,0,7.9,2.65,0,5.3,0,7.95,0v-.02c.01-2.62.02-5.24.02-7.86-.12,0-.24-.02-.35-.03-2.54,0-5.08,0-7.62,0Z"/>
              <path class="cls-11" d="m22.86,30.28c-2.54.22-5.41.77-7.96.99,2.54.11,5.41-.11,7.96,0,0-.33,0-.66,0-.99Z"/>
              <path class="cls-6" d="m93.81,7.9c-2.65,0-5.3,0-7.96,0,0,0,0,0,0,0,0,2.63-.01,5.26-.02,7.89v15.48c2.75,0,5.19,0,7.63,0,.19-2.56.37-5.13.57-7.9h7.39c0-2.52,0-5.05,0-7.57h-7.63v-7.9Z"/>
              <path class="cls-5" d="m85.84,15.79c0-2.63.01-5.26.02-7.89-5.19,0-10.38,0-15.58-.01,0,0-.04.05-.04.05,0,2.52,0,5.03,0,7.84h-7.92v.02c0,2.52-.01,5.04-.01,7.56h6.97c.22,0,.44,0,.66,0h7.94v-7.58h7.96Z"/>
              <path class="cls-10" d="m54.35,39.16c2.54,0,5.33,0,7.87,0l.08-7.9s0,0,0,0c-2.65,0-5.31,0-7.96-.01,0,0,0,.02,0,.02,0,2.63,0,5.26,0,7.89Z"/>
              <path class="cls-13" d="m101.43,23.37h-7.39c-.2,2.77-.39,5.33-.57,7.9.11,0,.23,0,.34,0,2.54,0,5.08,0,7.62,0,0,0,0,0,0,0,0-2.63,0-5.27,0-7.9Z"/>
              <path class="cls-18" d="m101.43,31.27c-2.54,0-5.08,0-7.62,0,0,2.51,0,5.01,0,7.89,2.7,0,5.15,0,7.61,0,0-2.63,0-5.26.01-7.89Z"/>
              <path class="cls-10" d="m69.93,31.22c0,1.76,0-1.76,0,0,0,.33,0,7.61,0,7.94,2.54,0,5.41,0,7.94,0,0-2.49,0-5.24,0-7.94"/>
              <path class="cls-12" d="m69.93,23.37c-2.32,0-5.31,0-7.63,0h0c0,2.64,0,5.28,0,7.91,0,0,0,0,0,0l7.63-.05v-7.85Z"/>
              <path class="cls-11" d="m69.27,23.37c.22,2.19.44,4.39.66,6.58,0-2.19,0-4.39,0-6.58-.22,0-.44,0-.66,0Z"/>
              <path class="cls-10" d="m101.43,23.37c0,2.63,0,5.27,0,7.9,5.31,0,10.62,0,15.93.01,2.65,0,5.3,0,7.94,0h0c0-2.64,0-5.27,0-7.91-.11-2.85-.22-5.7-.33-8.55-2.54.11-5.07.22-7.61.34,0,.21-.02.43-.02.64,0,2.43,0,4.86,0,7.37h-7.95v-7.35c-2.65,0-5.3,0-7.95,0,0,0,0,0,0,0,0,2.52,0,5.05,0,7.57Z"/>
              <path class="cls-9" d="m152.82,31.26c3.87,0,7.74,0,11.61,0v-7.9h-15.91v-7.57c-2.54-.11-5.08-.22-7.62-.33,0,2.63,0,5.27,0,7.9.19,2.19.37,4.38.55,6.52,2.59,1.63,5.78-1.13,8.07,1.38.55,0,1.11,0,1.66,0,.55-.85,1.1-.85,1.65,0Z"/>
              <path class="cls-5" d="m149.5,31.26c-2.29-2.52-5.48.25-8.07-1.38-.18-2.13-.37-4.32-.55-6.52-2.65,0-5.3,0-7.95,0,0,2.55,0,5.09,0,7.89h-7.63s0,0,0,0c0,2.63,0,5.26,0,7.89,0,0,0,0,0,0,5.19,0,10.38,0,15.57,0,0-2.53,0-5.06,0-7.89h7.96c.22,0,.45,0,.67-.01Z"/>
              <path class="cls-10" d="m140.89,15.46c2.54.11,5.08.22,7.62.33,2.65-.1,5.3-.21,7.96-.31.11-2.53.23-5.06.34-7.59,0,0,0,0,0,0-2.66,0-5.31,0-7.97,0-2.52,0-5.05,0-7.94,0v7.57Z"/>
              <path class="cls-13" d="m125.3,31.26h7.63c0-2.8,0-5.35,0-7.89-2.54,0-5.09,0-7.63,0,0,2.63,0,5.26,0,7.9Z"/>
              <path class="cls-17" d="m14.89,23.36c0-2.52.01-5.04.02-7.57,0,0,0,0,0,0-2.54,0-5.09,0-7.63,0,0,2.53,0,5.05,0,7.58,2.54,0,5.08,0,7.62-.01Z"/>
              <path class="cls-14" d="m7.27,39.16c2.54,0,5.08,0,7.63,0v-7.9c-2.56,0-4.86.03-7.63.03,0,2.52,0,5.44,0,7.86Z"/>
              <path class="cls-10" d="m235.35,7.9c-2.64,0-5.28,0-7.92-.01-5.2-.11-10.4-.21-15.6-.32-2.54,0-5.08,0-7.91,0v7.9c-2.86,0-5.43,0-8,0,0,2.63,0,5.26,0,7.89,0,0,.01.01.01.01,2.65,0,5.3,0,7.96,0,2.65,0,5.3,0,7.94,0,0-2.44,0-4.87,0-7.39h7.63v7.38c2.65,0,5.3,0,7.95,0v-7.9h7.97c0-2.53.01-5.05.02-7.58h-.04Z"/>
              <path class="cls-14" d="m195.91,23.36c0-2.63,0-5.26,0-7.89,0-2.4,0-4.79,0-7.57-2.83,0-5.39,0-7.96,0-2.54,0-5.08,0-7.63,0-.22,0-.44,0-.66,0,.11,2.63.22,5.26.33,7.89.11,0,.22,0,.33,0,2.45,0,4.91,0,7.63,0v7.57h0c2.65,0,5.3,0,7.95,0Z"/>
              <path class="cls-13" d="m180.34,15.8c-.11,0-.22,0-.33,0-2.54-.11-5.08-.22-7.62-.33-2.52,0-5.05,0-7.9,0v-7.57c-2.77,0-5.23,0-7.68,0-.11,2.53-.23,5.06-.34,7.59.11,2.63.22,5.26.33,7.88h7.63v7.9c.11,2.63.22,5.27.33,7.9,2.54,0,5.08,0,7.63,0v-7.9c0-2.55,0-5.09,0-7.9h7.96,0c0-2.53,0-5.05,0-7.57Z"/>
              <path class="cls-12" d="m172.38,15.47c2.54.11,5.08.22,7.62.33-.11-2.63-.22-5.26-.33-7.89-2.3,0-4.61,0-7.3,0v7.57Z"/>
              <path class="cls-6" d="m117.34,15.79c0-.21.02-.43.02-.64,0-2.28,0-4.55,0-7.25-5.47,0-10.7,0-15.93,0,0,2.63,0,5.27,0,7.9,2.65,0,5.3,0,7.95,0,2.65,0,5.3,0,7.95-.01Z"/>
              <path class="cls-14" d="m7.27,15.79c2.54,0,5.09,0,7.63,0,0-2.63,0-5.26,0-7.89-2.5,0-5.01,0-7.48,0"/>
              <path class="cls-5" d="m250.96,31.28c2.65,0,5.3-.01,7.95-.02,0-2.63.01-5.27.02-7.9h0c-2.55,0-5.09,0-7.96,0v-7.57c-2.54-.11-5.08-.22-7.63-.32,0,0,0,0,0,0,0,2.63,0,5.27,0,7.9,0,2.63,0,5.26,0,7.89,0,0,0,.03,0,.03,2.54,0,5.08,0,7.62,0Z"/>
              <path class="cls-12" d="m266.86,7.9c-2.65,0-5.29,0-7.94,0,0,2.63,0,5.27,0,7.9,2.65,0,5.31,0,7.96,0,0-2.63-.01-5.27-.02-7.9Z"/>
              <path class="cls-15" d="m266.87,15.8c-2.65,0-5.31,0-7.96,0,0,2.52,0,5.04,0,7.57,0,0,0,0,0,0,2.64,0,5.28,0,7.92,0,0-2.52.01-5.04.02-7.56h.01Z"/>
              <path class="cls-5" d="m235.39,7.89c0,2.53-.01,5.05-.02,7.58,2.65,0,5.31,0,7.96,0,0,0,0,0,0,0,0-2.4,0-4.79,0-7.58h-7.94Z"/>
              <path class="cls-14" d="m266.84,23.35c-2.64,0-5.28,0-7.92,0,0,2.63-.01,5.27-.02,7.9,2.52,0,5.03,0,7.92,0v7.92c5.46,0,10.55,0,15.64,0,2.65,0,5.3,0,7.94,0,0-2.63,0-5.27-.01-7.9,0,0,0,0,0,0-2.55,0-5.1,0-7.95,0v-7.91h0c-5.2,0-10.41,0-15.61-.01Z"/>
              <path class="cls-4" d="m250.96,31.28c-2.54,0-5.08,0-7.62,0,0,2.5,0,5,0,7.88,2.71,0,5.16,0,7.62,0,0-2.63,0-5.26,0-7.89Z"/>
              <path class="cls-8" d="m125.31,39.17c0-2.63,0-5.26,0-7.89-2.65,0-5.3,0-7.94,0,0,2.5,0,5.01,0,7.88h7.95Z"/>
              <path class="cls-8" d="m148.83,31.28h-7.96c0,2.83,0,5.36,0,7.89,2.65,0,5.31,0,7.96,0,0-2.63,0-5.26,0-7.89Z"/>
              <path class="cls-5" d="m152.82,31.26c-.55-.85-1.1-.85-1.65,0,.55,0,1.1,0,1.65,0Z"/>
              <path class="cls-10" d="m180.34,23.37h-7.96c0,2.8,0,5.35,0,7.9,2.65,0,5.31,0,7.96,0,0-2.63,0-5.26,0-7.89Z"/>
              <path class="cls-18" d="m180.34,23.37c0,2.63,0,5.26,0,7.89,2.54,0,5.08,0,7.62.01,0-2.63,0-5.27,0-7.9,0,0,0,0,0,0-2.54,0-5.09,0-7.63,0h0Z"/>
              <path class="cls-8" d="m305.99,31.26c0-2.63,0-5.26,0-7.89-2.54,0-5.08,0-7.62,0-2.66,0-5.31,0-7.97-.01v.02c0,2.63,0,5.27,0,7.9,0,0,0,0,0,0,5.2,0,10.4,0,15.6,0Z"/>
              <path class="cls-17" d="m203.88,23.37c-2.65,0-5.3,0-7.96,0,0,5.26,0,10.53,0,15.79,2.66,0,5.31-.01,7.97-.02,0-5.26,0-10.52,0-15.78Z"/>
              <path class="cls-11" d="m38.77,37.85c0-1.65,0-3.29,0-4.94,0,1.65,0,3.29,0,4.94Z"/>
              <path class="cls-15" d="m266.86,7.9c0,2.63.01,5.27.02,7.9,0,0-.01-.01-.01-.01,2.64,0,5.29-.02,7.93-.03-.1-2.62-.2-5.25-.3-7.87-2.55,0-5.09,0-7.64,0Z"/>
              <path class="cls-13" d="m290.41,15.48c-2.65.1-5.3.19-7.96.29,0,0,0,.03,0,.03,0,2.52,0,5.04,0,7.57,0,0,0,0,0,0,2.65,0,5.31,0,7.96,0,0,0,0-.02,0-.02,0-2.52,0-5.04,0-7.56,0-.11,0-.21,0-.32Z"/>
              <path class="cls-8" d="m290.41,15.48c0,.11,0,.21,0,.32,2.65-.11,5.3-.22,7.95-.33,0-2.52,0-5.05,0-7.57,0,0,0,0,0,0-2.65,0-5.31,0-7.96,0,0,2.53,0,5.06,0,7.58Z"/>
              <path class="cls-4" d="m282.45,23.36c0-2.52,0-5.04,0-7.57-2.55-.01-5.1-.02-7.66-.03-2.64,0-5.29.02-7.93.02,0,2.52-.01,5.04-.02,7.56,5.2,0,10.41,0,15.61.01Z"/>
              <path class="cls-5" d="m227.42,39.16c2.65,0,5.3,0,7.95,0,0-2.63,0-5.27,0-7.9,0,0,0,0,0,0-2.65,0-5.29,0-7.94-.01,0,2.64,0,5.27-.01,7.91Z"/>
              <path class="cls-18" d="m243.33,31.26c0-2.63,0-5.26,0-7.89-2.55,0-5.09,0-7.96,0v7.9s0,0,0,0c2.65,0,5.3,0,7.96,0Z"/>
              <path class="cls-18" d="m54.35,39.16c0-2.63,0-5.26,0-7.89l-7.97.1c0,2.41.01,5.37.02,7.79,2.65,0,5.3,0,7.95,0Z"/>
              <path class="cls-16" d="m62.32,15.78h7.92c0-2.8,0-5.32,0-7.84-2.63,0-5.27-.01-7.9-.02,0,2.62,0,5.24-.01,7.86Z"/>
              <path class="cls-11" d="m306,7.91c-2.54,0-5.09-.01-7.63-.02,0,2.52,0,5.05,0,7.57,0,2.63,0,5.27,0,7.9,2.54,0,5.08,0,7.62,0"/>
              <path class="cls-16" d="m203.88,23.37c0,5.26,0,10.52,0,15.78,5.19,0,10.38.01,15.57.02,0,0,0-.02,0-.02,0-2.63,0-5.26,0-7.89-2.44,0-4.87,0-7.63,0v-7.89h0c-2.65,0-5.3,0-7.94,0Z"/>
              <path class="cls-17" d="m219.46,31.26c0,2.63,0,5.26,0,7.89,2.66,0,5.31,0,7.97,0,0-2.64,0-5.27.01-7.91,0-2.63-.02-5.26-.03-7.88-2.65,0-5.3,0-7.95,0h0c0,2.63,0,5.26,0,7.9Z"/>
              <path class="cls-17" d="m62.3,23.36c0-2.52,0-5.04,0-7.56-2.65,0-5.3,0-7.95,0,0,2.52,0,5.04,0,7.57,0,0,0,0,0,0,2.65,0,5.31,0,7.96,0h0Z"/>
              <path class="cls-13" d="m62.31,23.37c-2.65,0-5.31,0-7.96,0,0,2.63,0,5.26,0,7.88,2.65,0,5.31,0,7.96.01,0-2.63,0-5.27,0-7.9Z"/>
              <path class="cls-9" d="m117.34,15.79c-2.65,0-5.3,0-7.95.01,0,2.38,0,4.77,0,7.35h7.95v-7.37Z"/>
              <path class="cls-14" d="m156.8,23.37c-.11-2.63-.22-5.26-.33-7.88-2.65.1-5.3.21-7.96.31v7.57h8.29Z"/>
              <path class="cls-14" d="m227.41,23.37c0,2.63.02,5.26.03,7.88,2.65,0,5.29,0,7.94.01v-7.9c2.86,0,5.41,0,7.96,0,0-2.63,0-5.27,0-7.9-2.65,0-5.31,0-7.96,0-2.54,0-5.08,0-7.97,0v7.9Z"/>
              <path class="cls-5" d="m219.46,23.37v-7.38h-7.63c0,2.51,0,4.95,0,7.39,0,0,0,0,0,0,2.54,0,5.09,0,7.63,0h0Z"/>
              <path class="cls-5" d="m180.33,23.36c2.54,0,5.09,0,7.63,0,0-2.4,0-4.79,0-7.57-2.72,0-5.17,0-7.63,0,0,2.52,0,5.04,0,7.57Z"/>
              <path class="cls-3" d="m290.41,23.37c-2.65,0-5.31,0-7.96,0,0,2.53,0,5.06,0,7.91,2.86,0,5.41,0,7.95,0,0-2.63,0-5.27,0-7.9Z"/>
              <path class="cls-4" d="m298.37,23.37c0-2.63,0-5.27,0-7.9-2.65.11-5.3.22-7.95.33,0,2.52,0,5.04,0,7.56,2.66,0,5.31,0,7.97.01Z"/>
              <path class="cls-10" d="m219.46,23.37c-2.54,0-5.09,0-7.63,0,0,2.53,0,5.05,0,7.89,2.76,0,5.2,0,7.63,0,0-2.63,0-5.26,0-7.9Z"/>
            </g>
          </g>
        </g>
      </g>
    </g>
  </g>
</svg>